<svg id="background" xmlns="http://www.w3.org/2000/svg" viewBox="0 0 228.29 126.44"><defs><style>.cls-1{fill:#ffde17;}.cls-2{fill:#ec008c;}.cls-3{fill:#00aeef;}.cls-4{fill:#f26522;}.cls-5{fill:#00a651;}</style></defs><title>collaboration</title><path class="cls-1" d="M193.44,61.36l27.09-19.13.05-.13.11,0c2.32,1,4.68,1.82,7.06,2.59l.29.35a13.07,13.07,0,0,0-.33,1.87c-.11.79-.21,1.58-.31,2.37-.05.34-.09.68-.12,1a8.44,8.44,0,0,0,.08,1.88l.21.54-9.31,6.57,0-.07c-5,3.48-10.3,6.54-14.89,10.53a18,18,0,0,0-4.75,5.81,11.88,11.88,0,0,0-1,4v0a15.89,15.89,0,0,0,0,2.39v44.68H184.87c0-13.47,0-34.7,0-47-.12-2.62-.14-5.25,0-7.88a9.66,9.66,0,0,1,.58-3.47,8.6,8.6,0,0,1,2-2.63A21.76,21.76,0,0,1,193.44,61.36Z"/><path class="cls-2" d="M75.12,93.32h34.49c6.25.72,12.6-1,18.69-2.81a37.37,37.37,0,0,0,5.35-1.9,34.7,34.7,0,0,0,4.21-2.45q7.59-4.95,14.76-10.51c3.19-2.47,6.32-5,9.41-7.62l52-36.72.09-.31h.13a2.14,2.14,0,0,1,1,.34,30.21,30.21,0,0,0,7.11,2.73A27.83,27.83,0,0,1,221.7,38c0,.2-.09.41-.14.61-.21,1-.43,2-.64,3l-.23.57-.11,0-.05.13L193.44,61.36a21.76,21.76,0,0,0-6,4.36,8.6,8.6,0,0,0-2,2.63,9.66,9.66,0,0,0-.58,3.47c-.11,2.63-.09,5.26,0,7.88,0,12.31,0,33.54,0,47H51.17V106.2h.09c0-2.16.07-4.33.1-6.49,0-1.62.09-3.36,1.06-4.65.59-.8,1.57-.91,2.46-1.36,1.2-.63,6.63-.58,10-.59l10.24,0Z"/><path class="cls-3" d="M51.17,106.2v20.51H37.83V104h-.08V97h.12a31.12,31.12,0,0,1,.94-9,10.49,10.49,0,0,1,5.58-6.79,13.24,13.24,0,0,1,2.91-.75,37.14,37.14,0,0,1,6-.48v0h53.35l.23,0a17.23,17.23,0,0,0,2.59,0c.7,0,1.4-.13,2.1-.21a50.43,50.43,0,0,0,9.22-1.62,50,50,0,0,0,6.52-2.69,36.49,36.49,0,0,0,4.47-2.34c.61-.4,1.19-.83,1.76-1.28L206,20.64v0l2.73.82a14.64,14.64,0,0,0,5.77.92l1.73,0a10.57,10.57,0,0,0-1.21,5.81,5.86,5.86,0,0,1,0,2.17l-.79.59h-.13l-.09.31L162,68c-3.09,2.6-6.22,5.15-9.41,7.62q-7.16,5.55-14.76,10.51a34.7,34.7,0,0,1-4.21,2.45,37.37,37.37,0,0,1-5.35,1.9c-6.09,1.81-12.44,3.53-18.69,2.81H75.12v-.23l-10.24,0c-3.37,0-8.8,0-10,.59-.89.45-1.87.56-2.46,1.36-1,1.29-1,3-1.06,4.65,0,2.16-.07,4.33-.1,6.49Z"/><path class="cls-4" d="M37.75,104h.08v22.72H-.5V65.65H105.81v0a51.3,51.3,0,0,0,9.9-1.17,19.45,19.45,0,0,0,8.68-4.41,16.21,16.21,0,0,1,3-1.45l68.76-48.55h.06c2.93.46,7.73-.13,10.68,0-.27,1.13.13,3.27.1,4.77a16,16,0,0,1-.8,5.69l-.18.13L133.5,71.85c-.57.45-1.15.88-1.76,1.28a36.49,36.49,0,0,1-4.47,2.34,50,50,0,0,1-6.52,2.69,50.43,50.43,0,0,1-9.22,1.62c-.7.08-1.4.16-2.1.21H53.26v0a37.14,37.14,0,0,0-6,.48,13.24,13.24,0,0,0-2.91.75A10.49,10.49,0,0,0,38.81,88a31.12,31.12,0,0,0-.94,9h-.12Z"/><path class="cls-5" d="M119.07,49.8,189.26.25l.05,0a71,71,0,0,0,8.87.73l.47.11c-.26,1.11-.53,2.22-.79,3.33a31,31,0,0,1-1.56,5.19l-.06.42h-.06L127.42,58.6a16.21,16.21,0,0,0-3,1.45,19.45,19.45,0,0,1-8.68,4.41,51.3,51.3,0,0,1-9.9,1.17v0H-.5v-12H107.73v-.14a16.56,16.56,0,0,0,6.43-.8,15.93,15.93,0,0,0,2.49-1.38Z"/></svg>