<svg xmlns="http://www.w3.org/2000/svg" viewBox="0 0 974.5 661.2"><defs><style>.cls-1{fill:#00aeef;}.cls-2{fill:#7f3f98;}.cls-3{fill:#ed1c24;}.cls-4{fill:#58595b;}.cls-5{fill:#231f20;}.cls-6{fill:#fff;}.cls-7{fill:#6d6e71;}.cls-8{fill:#939598;}.cls-9{fill:#bcbec0;}.cls-10{fill:#a7a9ac;}</style></defs><title>ferment_create_launch</title><g id="background"><path class="cls-1" d="M723.08,202.23l-3.14,122.29c-.53,20.58-1.06,41.18-.12,61.75.8,17.2,2.62,34.43,1.39,51.62-.94,13-3.56,26.5,1.21,38.85l.17.4c-12.18,1.76-24.6,1.58-36.94,1.42q-212.14-2.81-424.3.46l-.11-.49.36-213.86.11-62.82-.43.05c56.49,5.82,113.67-2.63,170.46,0,14.94.69,29.82,2.15,44.76,2.75,13.63.54,27.28.37,40.93.2l205-2.57"/><path class="cls-2" d="M92.64,539.71c-16.1,1.31-26.27,2.53-42,6.16-4,.93-8.14,2-11.31,4.72a15,15,0,0,0-4.61,15c1.46,5.35,9.75,5.14,11.57,10.38,1,3-6.16,3.79-6.27,6.94s6.85,3.54,6.86,6.81c0,7.91-14.17,5.87-21.43,8.52A52.49,52.49,0,0,0,3.14,614.07a12.93,12.93,0,0,0-2.95,5.2c-.79,3.45,1,7.08,3.63,9.37s5.95,3.54,9.19,4.73L28.46,639c1.08.4,2.3,1,2.59,2.08.33,1.3-.75,2.48-1.34,3.67-1.72,3.44.87,7.79,4.31,9.35s7.39,1.16,11.14.94c18.19-1.09,36.28,2.5,54.38,4.65s37,2.77,54-4c2.71-1.07,5.46-2.41,7.22-4.77s2.18-6,.21-8.22c-1-1.12-2.55-1.85-2.93-3.31-.53-2.05,1.57-3.72,3.38-4.74,3.1-1.75,6.39-3.54,9.92-3.39s7.19,3.09,6.83,6.69c-.13,1.28-.73,2.49-.71,3.77.05,3.61,4.46,5.12,8,5.53s7.91,1.56,8.36,5.15c.24,2-.88,4.36.45,5.83a4.23,4.23,0,0,0,2.35,1.05A88.7,88.7,0,0,0,267.47,643c3.83-2.93,7.53-6.32,9.47-10.79s1.69-10.26-1.71-13.69c-3.06-3.08-7.71-3.58-11.65-5.3S256,606.82,258.09,603c1.36-2.45,4.44-3.23,6.35-5.25,4.46-4.72.73-13.57,4.79-18.66,2.15-2.69,5.87-3.47,8.39-5.8,4.21-3.88,3.78-11.2.42-15.87s-8.82-7.21-14.19-9-11-3.18-15.77-6.29c-1.9-1.23-3.83-3.18-3.49-5.46.58-3.92,8.84-7.31,5.66-9.56-16.07-11.37-39.11-.79-58.37,2.5-4.4.76-9.65,2.47-10.57,6.95-.3,1.43-.07,3-.67,4.33-.8,1.8-2.83,2.63-4.72,3-14.3,3.16-37-17.21-43.28-3.66-.71,1.53,2.59,3.06,2,4.65-2.31,6.48-13.1,0-19.54-2C106.76,540.4,101.33,539,92.64,539.71Z"/><path class="cls-3" d="M875.25,107.87c29.43,12.14,57.11,7.28,99.68-17.17-1.77,13.29-25.33,73-33.17,83.91s-24.47,29.81-35.26,37.76C886.59,227,869.41,227,845.68,234c-3.13.92-11.83,7.5-11.83,7.5-4-.4-7.79-6.28-11.82-6.68a69.69,69.69,0,0,1-27-7c-11.64-4.92-23.35-9.86-34.09-16.53s-20.58-15.18-27.16-26a56.84,56.84,0,0,1-5.47-11.72l-.51-.87a61,61,0,0,0,30.61-1.3,26.24,26.24,0,0,0,8.43-4,17.7,17.7,0,0,0,5.64-7.6l2.75-4.83c7.83,1.81,9.81,6.22,17.43,8.76,4.69,1.57,11.37,5,16.46,5.25,4.53.19,11.48.68,16,0,6.4-1,12.39-3.24,18.41-5.63,10.18-4,18.59-13.48,24.31-22.81a51.42,51.42,0,0,0,7.32-31.44"/></g><g id="bigarrows"><path class="cls-4" d="M349.69,415.76a3.52,3.52,0,0,1-.48,1.3l1.21-1.29-.6.31c-3.72,1.92.72,7.22,3.34,4.39a112.26,112.26,0,0,0,8.51-11.14l-5.63.1c2.45,4.25,4.77,8.63,7.4,12.78,2.21,3.48,7.56.39,5.57-3.32-2.32-4.31-5-8.48-7.47-12.69-1.3-2.21-4.33-1.76-5.64.09A102.6,102.6,0,0,0,348.79,417l5.14.86c-.13-.51-.11-1.05-.23-1.57-.39-1.69-3.47-2.69-4-.54Z"/><path class="cls-4" d="M686.29,340.07c-1.87,3.65-2,8.52-2.17,12.55-.2,4.29-.45,8.57-.62,12.86-.34,8.52-.27,17.06-.3,25.58q-.11,25.54-.26,51.07c0,4.68-.06,9.36-.12,14.05l-.09,7.54c0,2.5-.23,4.92.8,7.26,1.35,3,6.12,3.12,7.45,0,1.66-3.86.75-9,.7-13.17s-.09-8.28-.12-12.43q-.09-12.94-.17-25.9c-.07-17.27,0-34.54-.34-51.81-.08-4.71-.4-9.43-.64-14.14-.22-4.36-.29-9.46-2.24-13.45a1.1,1.1,0,0,0-1.88,0Z"/><path class="cls-5" d="M702.63,338.56,635.84,406c-6.77,6.83-13.62,13.77-18.27,22.18l-.74-1a.93.93,0,0,0-.19,1.24,53.51,53.51,0,0,0,.54-7.9l.28-15.53c0-.44.3-1.06.69-.85l-.29-.06c-75.26-3.46-150.66-1.64-226,.19l-33.09.81-.26-.61q.69-58.66-.67-117.34l.67.35c42-3.34,84.19-3.16,126.32-3l133,.58.26.06.47-25h.58q6.87,7.83,14,15.47c12.8,13.84,26.12,27.2,39.42,40.55,3.62,3.63,7.24,7.27,11.14,10.6,5.1,4.36,13.2,8.41,19,11.87"/><path class="cls-5" d="M702,338.08q-23.06,22.79-45.89,45.78-11.19,11.25-22.37,22.5c-6.43,6.49-12.75,13.17-17.28,21.17h2.18l-.74-1a1.31,1.31,0,0,0-2.18,0,2.09,2.09,0,0,0-.29,2.17c.37,1,2.24,1.27,2.44,0a82.86,82.86,0,0,0,.64-11.14c0-1.94.08-3.88.11-5.82l.06-2.91c0-1-.33-3.21.26-4.07l-1.08.62.35,0a1.22,1.22,0,0,0,.22-2.42c-3.35-.69-7.16-.39-10.57-.53q-6.47-.25-12.94-.47-12.69-.4-25.38-.65-25.62-.5-51.27-.41c-34.19.07-68.38.75-102.57,1.55q-28.49.67-57,1.39l1.31.89c-.81-1.88-.14-5.2-.12-7.24l.06-7q0-7.47.07-14.92,0-14.67,0-29.33-.17-29.58-.86-59.16l-1.89,1.09a4.26,4.26,0,0,0,2.82.39q3.23-.25,6.45-.47,6.45-.45,12.91-.8,12.92-.71,25.85-1.06c17.24-.51,34.5-.63,51.75-.63,34.43,0,68.87.24,103.3.39l29.27.1,14.39.05,6.94,0c2.09,0,4.86-.44,6.89,0a1.16,1.16,0,0,0,1.48-1.07q.23-12.49.44-25l-1.15,1.08c.81,0,3.44,3.79,4.15,4.59q2.53,2.82,5.08,5.61,5.19,5.69,10.5,11.26c6.94,7.3,14,14.48,21.09,21.63s13.93,14.44,21.36,21.14c6.39,5.77,14,9.54,21.31,13.93,1.08.65,2.21-.89,1.1-1.56-7.79-4.65-15.64-8.68-22.33-14.91-7.57-7.05-14.74-14.57-22-21.95s-14.53-14.9-21.63-22.51q-5.22-5.6-10.33-11.3-2.53-2.82-5-5.66c-1-1.16-1.66-2.5-3.29-2.48a1.11,1.11,0,0,0-1.15,1.08q-.25,12.49-.5,25l1.49-1.08a16.19,16.19,0,0,0-3.55-.12l-7,0L595,283.75l-25.82-.14-51.12-.23c-34.48-.15-69-.59-103.44.14-9.62.21-19.24.51-28.85,1q-7.2.34-14.4.79c-2.32.15-4.64.3-6.95.47-1.54.11-4.64,1-6,.26a1.27,1.27,0,0,0-1.89,1.09q.69,30.07.85,60.16.07,14.92,0,29.84,0,7.46-.09,14.91,0,3.74-.07,7.46c0,1.86-.47,4.17.27,5.9a1.36,1.36,0,0,0,1.31.89c33.59-.81,67.19-1.69,100.8-2.29,34-.62,68-.91,102-.39q14.19.21,28.37.63,7,.19,13.93.46l7.46.3a41.34,41.34,0,0,1,6.4.31l.23-2.43a1.91,1.91,0,0,0-1.88,1.78c-.49,2.34-.12,5.22-.17,7.61-.09,5.24.15,10.62-.63,15.81l2.44,0,.09-.31h-2.18l.74,1a1.31,1.31,0,0,0,2.18,0c4.68-8.35,11.35-15.19,18-21.95l21.75-22Q681,362,703.26,339.05c.69-.72-.58-1.64-1.26-1Z"/><path class="cls-4" d="M361.52,471c1.4-2.42,1.1-5.33,1.09-8s-.08-5.26-.2-7.89c-.24-4.86-.29-9.72-.39-14.58s0-9.85-.12-14.78c-.07-2.56-.18-5.14-.45-7.69s-.34-4.83-1.64-6.91A1.85,1.85,0,0,0,357,411c-1.38,2.09-1.45,4.64-1.68,7.08s-.31,4.74-.4,7.12c-.2,4.8-.06,9.61-.13,14.41-.07,5.18-.17,10.38-.44,15.56-.12,2.33-.17,4.66-.18,7,0,3.18-.35,6.37,1.34,9.17,1.37,2.27,4.83,1.81,6-.3Z"/><path class="cls-4" d="M357.32,473.37c11.65.75,23.42.3,35.1.28l31.9,0c21.41,0,42.83.16,64.24-.18,42.51-.68,85.05-.35,127.56-.32,12,0,24-.07,35.94,0,6.45.06,12.9.59,19.34.8,6.07.2,12.38.63,18.39-.32a3.7,3.7,0,0,0,1.88-6.69c-.35-.27-3-1.25-3-.8,0-1.25-29.79.18-32.73.32-10.75.48-21.57.17-32.33.18l-64.34.05c-42.86,0-85.72-.53-128.58-.54l-36,0c-12.39,0-24.88-.51-37.26.24-4.09.24-4.4,6.76-.18,7Z"/></g><g id="annotate"><path class="cls-6" d="M412.66,339.52c-.58.83.38,1.93.89,2.62a12,12,0,0,0,3,2.73l.54-1.65c-2,0-5.18,1.73-4.53,4.16a.76.76,0,0,0,1.25.22c1-1.22,1.33-2.58,3.21-2.59a.9.9,0,0,0,.54-1.65A17.62,17.62,0,0,1,414,340c-.22-.25-1-1.06-1.32-.52Z"/><path class="cls-6" d="M417,343.28c-8.9-.54-17.9-.19-26.82-.2l-28.42,0L305.44,343c-10.65,0-21.39-.37-32,.16a.72.72,0,0,0,0,1.42c9.29.5,18.68.17,28,.17l27.41,0,55.81,0c10.78,0,21.73.49,32.49-.22a.59.59,0,1,0,0-1.18Z"/><path class="cls-6" d="M272.44,286.08c2.33.88,5.09.49,7.53.5,3.39,0,6.79,0,10.18.05,6.26.08,12.52.08,18.78.08h18.25c6.05,0,12.48.6,18.47-.28a.57.57,0,0,0,0-1.1c-5.94-.9-12.33-.29-18.33-.29H309.06c-6.31,0-12.62,0-18.93.08-3.11,0-6.22,0-9.33.05-2.67,0-5.84-.47-8.37.5a.21.21,0,0,0,0,.41Z"/><path class="cls-6" d="M373,302.28c3.11.65,6.5.32,9.67.33a82.32,82.32,0,0,0,10.54-.18c.76-.09.41-1.06-.18-1.14a79,79,0,0,0-10.09-.15c-3.26,0-6.77-.34-10,.33a.41.41,0,0,0,0,.81Z"/><path class="cls-6" d="M390.66,298.19c-.21,1.85,2.15,3.63,3.37,4.67l.12-1.45a7.86,7.86,0,0,0-4.1,4.36l1.87.3a1.71,1.71,0,0,0-.33-1.09.77.77,0,0,0-1.16-.06A1.82,1.82,0,0,0,390,306c-.12,1.05,1.59,1.27,1.87.3a5.47,5.47,0,0,1,3-3.39.83.83,0,0,0,.12-1.44c-1.26-1-2.56-3-4.16-3.45a.17.17,0,0,0-.22.16Z"/><path class="cls-6" d="M337,285.88s0,0,0,0Z"/><path class="cls-6" d="M343,285.82c3.4.23,5.93,2.87,8.17,5.16,2.7,2.77,5.4,5.56,8.18,8.24,1.89,1.82,3.84,3.36,6.49,3.82a30.32,30.32,0,0,0,9.41-.24.65.65,0,0,0-.09-1.29c-3.31-.19-7,.86-10.22-.23-3.4-1.16-6-4.63-8.49-7.08-3.47-3.43-8-9.69-13.48-8.89a.26.26,0,0,0,0,.51Z"/><path class="cls-6" d="M343,285.89a17.18,17.18,0,0,0,3.59,1.56,19.17,19.17,0,0,1,3.31,2.15c.62.43,1.53-.17,1.06-.89-1.38-2.1-5.32-3.78-7.78-3.55a.4.4,0,0,0-.18.73Z"/><path class="cls-6" d="M273.69,384.47a49.28,49.28,0,0,0,9,.35l9.4,0c6.68,0,13.37.06,20,.07,12.54,0,25.18.48,37.7-.06a.75.75,0,0,0,0-1.48c-12.78-.61-25.72-.07-38.52-.05-6.31,0-12.62.05-18.93.07l-9.85,0c-2.91,0-6-.22-8.85.35a.35.35,0,0,0,0,.7Z"/><path class="cls-6" d="M347,384.46a17,17,0,0,0,8.85-.36c3.67-1.2,4.75-3.58,6.76-6.53,2.27-3.3,6.42-3.92,10.13-4.22,4.43-.37,8.89-.61,13.33-.93,1-.06.78-1.46-.16-1.4-4.12.23-8.24.45-12.36.71a23.83,23.83,0,0,0-8.28,1.58c-2.57,1.14-3.84,3-5.2,5.33-3,5.12-8.12,4.35-13.12,5-.56.07-.4.76.05.86Z"/><path class="cls-6" d="M385.48,371.67a6.83,6.83,0,0,0,3.08.5,24.67,24.67,0,0,0,4.21.06c.63-.09.88-1.09.12-1.19a23.94,23.94,0,0,0-4.06,0,7.63,7.63,0,0,0-3.36.51.05.05,0,0,0,0,.1Z"/><path class="cls-6" d="M392.75,371.57c-2.3-.42-4.95-1-7.31-.61-.71.13-.91,1.17-.08,1.31,2.41.41,5-.15,7.39-.59a.06.06,0,0,0,0-.11Z"/><path class="cls-6" d="M390.1,368.28a18.17,18.17,0,0,0,3,3.82l.1-1.16c-1.22,1-2.92,2.9-2.44,4.61a.68.68,0,0,0,1.12.25,7.33,7.33,0,0,0,.93-1.75,6.11,6.11,0,0,1,1.52-1.84.82.82,0,0,0,.1-1.16,19.06,19.06,0,0,0-3.72-3.23c-.3-.18-.84.05-.62.46Z"/><path class="cls-6" d="M335,250.87c8,.23,16,.37,24,.37s16,.42,24-.11a.51.51,0,0,0,0-1c-8-.5-16.07-.11-24.05-.11s-16,.15-24,.38c-.34,0-.29.48,0,.49Z"/><path class="cls-6" d="M379.2,250.67c4,.5,7.39.84,10.22,4.1a19.62,19.62,0,0,1,4.07,8.48c1.44,6.18,1.65,12.7,2.42,19,.49,4,1.33,8.59,4.49,11.4,4.31,3.82,10.14,1.38,15.21,2.4.64.12,1-.8.31-.94-5.58-1.19-12.78,1.13-16.12-4.87-2.76-4.94-2.58-11.68-3.18-17.14s-1-11.47-3.91-16.38c-2.69-4.51-8.14-8-13.55-6.58a.28.28,0,0,0,0,.54Z"/><path class="cls-6" d="M414,292.14a17,17,0,0,0,2.53,3.61l.16-1c-1.17.69-3,2.37-2.33,3.87a.55.55,0,0,0,.82.16,3.69,3.69,0,0,0,.79-1.25,4.29,4.29,0,0,1,1.62-1.6.7.7,0,0,0,.16-1c-1-1.11-1.85-2.3-2.88-3.35a.53.53,0,0,0-.87.58Z"/><path class="cls-6" d="M327.51,434.86a109.09,109.09,0,0,0,12.13.4c3.57,0,7.81.63,11.27-.27.46-.12.2-.68-.13-.76-3.42-.89-7.69-.25-11.22-.25a113.21,113.21,0,0,0-12.08.4c-.33,0-.28.45,0,.48Z"/><path class="cls-6" d="M347.16,434.76c4.55,1.34,10.44-1.84,13.91-4.52,4.05-3.13,7-7.43,9.38-11.9s4.41-9.26,6.5-13.93c1.19-2.65,2.48-5.25,5.06-6.8,2.76-1.66,5.65-1.93,8.76-2.33a.71.71,0,0,0,0-1.41c-4.51-.44-9.79,1.18-12.71,4.77-3.1,3.82-4.66,9.21-6.7,13.63-2.36,5.13-5,10.29-9,14.36a23.89,23.89,0,0,1-7.41,5.18c-2.53,1.12-5.43,1.41-7.89,2.6a.19.19,0,0,0,.05.35Z"/><path class="cls-6" d="M389,395.1a14.61,14.61,0,0,0,3,.39c.75,0,1.51.09,2-.58a.49.49,0,0,0,0-.52c-.52-.78-1.39-.64-2.25-.62a14.8,14.8,0,0,0-2.73.36.5.5,0,0,0,0,1Z"/><path class="cls-6" d="M392.09,391.87a3.59,3.59,0,0,0,2.7,3.07l-.22-1.16a6.16,6.16,0,0,0-2.85,4.13c-.18.88,1.32,1.15,1.43.26a4.57,4.57,0,0,1,2.15-3.31.64.64,0,0,0-.23-1.16c-1.12-.16-1.81-1.51-2.8-1.95-.08,0-.17,0-.18.12Z"/><path class="cls-6" d="M395.61,427.82a25.65,25.65,0,0,0,6.07.33c2.27,0,4.55.1,6.82.13,4.49.06,9,.05,13.46.06,8.79,0,17.75.5,26.52-.11a.73.73,0,0,0,0-1.45c-8.88-.67-18-.12-26.91-.11q-6.45,0-12.9.05c-2.37,0-4.74.11-7.1.14a25.34,25.34,0,0,0-6,.34c-.35.09-.22.54.06.62Z"/><path class="cls-6" d="M445.24,427.92c4.38,1.51,9.29-.91,12.42-3.93,3.69-3.56,5.5-8.54,6.51-13.46a100.27,100.27,0,0,0,1.6-17.89c.14-6,1.55-14.92,9.44-14.76.85,0,.86-1.32,0-1.42-4.16-.46-7.71,2.31-9.45,6-2.52,5.27-1.63,11.71-2,17.37-.43,6.15-1,12.82-3.88,18.39-3,5.91-8.05,8.82-14.56,9a.39.39,0,0,0-.09.74Z"/><path class="cls-6" d="M474.58,377.15c.53.83,1.75.63,2.6.67s2.07.3,2.85-.22a.53.53,0,0,0,0-.92c-.82-.54-2-.3-2.92-.25s-2.07-.17-2.54.66a.07.07,0,0,0,0,.06Z"/><path class="cls-6" d="M477.77,373.5c-.3,1.82,1.55,3.58,2.93,4.48l.13-1.38c-1.12.41-2.39,1.6-2.14,2.92a.74.74,0,0,0,1.36.26c.43-.77.6-1.37,1.5-1.71a.8.8,0,0,0,.14-1.39,9,9,0,0,1-2.06-1.83,10.76,10.76,0,0,0-1.31-1.54.34.34,0,0,0-.55.19Z"/><path class="cls-6" d="M460.38,251.84c2.54.43,4.29.46,5.64,3,.7,1.32,1.31,2.71,1.88,4.09a62.87,62.87,0,0,1,3,9.17,170.47,170.47,0,0,1,3.28,20.58c.41,3.51.84,7,1.41,10.51.45,2.77.64,6.27,2.05,8.74,2.34,4.12,10.36,4.17,14.34,3.44,1-.17.89-1.76-.14-1.71a26.44,26.44,0,0,1-10-.88c-3.7-1.23-3.78-6.16-4.35-9.5-1.19-6.93-1.79-13.94-2.82-20.9A84.05,84.05,0,0,0,470.09,260c-1.77-4.53-3.88-10.24-9.79-8.76-.34.09-.23.59.08.64Z"/><path class="cls-6" d="M489.78,308.24a26.14,26.14,0,0,0,2.47,2.68l.11-1.14a5,5,0,0,0-2.34,4,.87.87,0,0,0,1.72.15,3.74,3.74,0,0,1,1.71-2.91.8.8,0,0,0-.05-1.29,26.25,26.25,0,0,0-3-2.1c-.4-.23-.93.17-.6.59Z"/><path class="cls-6" d="M461.91,251c-6.73-.64-13.7-.15-20.45-.15-7,0-14.35-.5-21.36.32a.38.38,0,0,0,0,.76c6.89.81,14.05.31,21,.32s14.07.54,20.95-.16c.69-.07.43-1-.15-1.09Z"/><path class="cls-6" d="M447.53,448.68c5.19.69,10.72.18,16,.25s10.3.07,15.46.09c10.4.05,20.81.17,31.21.17,1.09,0,1.25-1.63.15-1.63-10.49,0-21,.12-31.46.16-5.12,0-10.25,0-15.37.09s-10.76-.45-15.95.25a.31.31,0,0,0,0,.62Z"/><path class="cls-6" d="M509.29,448.68c5.46,2.13,9.19-4.46,10.95-8.46a145,145,0,0,0,7.54-20.89c2-7.28,3.4-14.69,5.37-22,.9-3.33,1.69-7.42,3.92-10.18,2.72-3.36,6.7-3,10.55-3.25a.68.68,0,0,0,.07-1.34c-5.3-.6-10.58.66-13.18,5.67a43.84,43.84,0,0,0-3,8.9c-1,3.79-1.9,7.62-2.79,11.44a170.32,170.32,0,0,1-6.39,22.4c-2.43,6.36-4.8,16.29-12.92,16.68a.52.52,0,0,0-.17,1Z"/><path class="cls-6" d="M546.2,380.74c.26,1.62,1.87,2.79,3.35,3.26v-1.39a3.64,3.64,0,0,0-2.54,3c-.15,1,1.41,1.18,1.56.22a2.19,2.19,0,0,1,1.59-1.81.75.75,0,0,0,0-1.39,8.06,8.06,0,0,1-3.28-2.27.43.43,0,0,0-.68.39Z"/><path class="cls-6" d="M502.34,254.38c3.12.86,6.64.48,9.85.47,3.42,0,6.83,0,10.24,0h10.24a68.16,68.16,0,0,0,9.8-.22.43.43,0,0,0-.05-.85,64.66,64.66,0,0,0-9.34-.22H522.83c-3.25,0-6.5,0-9.76,0-3.46,0-7.38-.46-10.73.47a.19.19,0,0,0,0,.37Z"/><path class="cls-6" d="M540.18,254.61c2.1.22,4.66.37,6.38,1.75s2.29,3.49,2.85,5.44c1,3.31,1.74,6.66,2.41,10,1.43,7.21,2.29,14.52,3.16,21.81.93,7.72.52,24.66,12.47,22.94a.79.79,0,0,0-.05-1.57c-2.32-.41-4.57-.09-6.12-2.17a16.74,16.74,0,0,1-2.94-7.54c-1.14-7.09-1.69-14.28-2.65-21.4a144.37,144.37,0,0,0-4.08-21.13c-.73-2.51-1.53-5.33-3.5-7.18-2.2-2.06-5.14-2.32-8-1.81a.42.42,0,0,0,0,.83Z"/><path class="cls-6" d="M566.34,316.15c.88.77,2.32.52,3.41.53a10.93,10.93,0,0,0,3.52-.22.61.61,0,0,0,0-1.18,12.53,12.53,0,0,0-4.06-.21c-.95,0-2-.14-2.81.5a.36.36,0,0,0,0,.58Z"/><path class="cls-6" d="M571,312.44c-.93.89,2,3.48,2.58,4.12l.31-1.2c-1.21.49-3.52,2.5-2.43,3.95a.61.61,0,0,0,.91.15c.42-.4.38-.62.61-1.15a2.79,2.79,0,0,1,1.58-1.51.77.77,0,0,0,.31-1.2c-.84-.89-1.68-1.78-2.57-2.63-.48-.45-1-1.06-1.69-1a.48.48,0,0,0-.39.43v.08a.43.43,0,0,0,.47.45c.4-.06.19-.42.32-.54Z"/><path class="cls-6" d="M541.94,433c3.73.9,8.2.41,12,.41h12.44c4.17,0,8.33.06,12.5.09s8.91.67,13-.18a.57.57,0,0,0,0-1.1c-2.47-.52-5.2-.21-7.72-.21l-6,0c-4.12,0-8.25.08-12.38.09H553.9c-3.82,0-8.27-.5-12,.41a.23.23,0,0,0,0,.44Z"/><path class="cls-6" d="M589.58,433.24c5.5,1.33,9.93-4.84,11.68-9.19,1.37-3.4,2.26-7,3.38-10.5s2.16-7.1,2.94-10.73c1.64-7.65,2.47-15.44,4.21-23.07.78-3.37,1.49-8.46,4.26-10.89,2.61-2.27,6.48-1.81,9.67-2,.55,0,.8-.87.17-1-5.18-1.07-10.89-.24-13.25,5-2.9,6.47-3.7,14.18-4.83,21.1a166.27,166.27,0,0,1-5.47,23.22,73.24,73.24,0,0,1-3.29,9.73c-2,4.27-4.91,6.21-9.41,7.38-.42.11-.56.76-.06.88Z"/><path class="cls-6" d="M621.94,366.45c1.75.36,4.14.88,5.89.41a.64.64,0,0,0-.07-1.24,7.64,7.64,0,0,0-2.57,0,29.38,29.38,0,0,0-3.26.45c-.22,0-.19.37,0,.41Z"/><path class="cls-6" d="M625.61,364c.37.5.65,1.06,1,1.57a9.36,9.36,0,0,1,.88,1.17l.15-.58c-.75,1-2.43,2-2.14,3.39a.59.59,0,0,0,.83.35c.67-.29.92-1,1.38-1.52s1.34-1,1.38-1.75-.61-1.18-1-1.6a7.09,7.09,0,0,0-1.71-1.66.57.57,0,0,0-.66.05l-.14.13a.36.36,0,0,0,0,.45Z"/><path class="cls-6" d="M579.17,332.88c-2.72.33-3.19,2.78-3.29,5.16-.12,2.83-.34,5.72.6,8.45,1.76,5.06,7.52,7.45,11.75,3.63,5-4.5,2.94-10.43-.64-15.09-1.56-2-3.67-4-6.36-4.24a5.09,5.09,0,0,0-5.29,3,1.68,1.68,0,0,0,2.92,1.55c2.44-3.4,5.89,1.53,7.14,3.62,1.82,3,2.59,6.26-.54,8.74-3.42,2.7-5.69-1.67-6.2-4.55-.4-2.28-1.68-7.45.4-9.07a.69.69,0,0,0-.49-1.23Z"/><path class="cls-6" d="M601.19,333.36c-1.11,4.11.58,8.53.37,12.7-.08,1.74-.41,2.35-2.12,2.23a10.62,10.62,0,0,1-2.7-.8c-1.45-.54-2.49-2-4.08-1.81a1.81,1.81,0,0,0-1.4,2.18c.83,2.61,3.82,3.08,6.18,3.75s4.44,1,6.26-.77,1.74-4.5,1.45-6.93c-.41-3.41-.42-7.59-2-10.68a1.09,1.09,0,0,0-2,.13Z"/><path class="cls-6" d="M594,332.7a29.16,29.16,0,0,0,7.26.95c2.69.05,5.88.57,8.39-.46,1-.41.52-1.65-.24-2-2.2-.92-5.13-.44-7.48-.4a31.45,31.45,0,0,0-8,1,.48.48,0,0,0,0,.93Z"/><path class="cls-6" d="M612.37,331.88c-1.83,1.67-1.12,5.74-1.13,8,0,3.24-.86,7.79.65,10.7.29.57,1.34.82,1.7.15,1.5-2.81.72-7.06.71-10.17,0-2.54.84-6.79-1.17-8.67a.56.56,0,0,0-.76,0Z"/><path class="cls-6" d="M613.09,351.55a19.68,19.68,0,0,0,4.54.31c2,0,4.13.26,6-.51,1.07-.44.49-1.74-.29-2.07-1.55-.65-3.32-.41-5-.41a23.35,23.35,0,0,0-5.42.32,1.22,1.22,0,0,0,.1,2.36Z"/><path class="cls-6" d="M613.34,341.81a6.89,6.89,0,0,0,2.94.64,4.39,4.39,0,0,0,2.83-.47.84.84,0,0,0-.06-1.36,4.34,4.34,0,0,0-2.82-.47,6.65,6.65,0,0,0-3,.67.57.57,0,0,0,.08,1Z"/><path class="cls-6" d="M612.49,333.32c1.16,1.4,3.26,1.18,4.92,1.21,2,0,4.89.62,6.55-.72a1,1,0,0,0,.07-1.38c-1.64-1.4-4.17-.86-6.21-.84-1.78,0-4.18-.29-5.39,1.27a.39.39,0,0,0,.06.46Z"/><path class="cls-6" d="M635.24,333.81c-1-3.21-5.67-4.17-8.24-2.27a5.75,5.75,0,0,0-1.91,4.38,61.24,61.24,0,0,0,0,8.35c.21,3.28,1,7.14,4.88,7.74,3.17.5,7.49-2.45,6.6-5.94a1.49,1.49,0,0,0-2.18-.68c-1.2.95-2.16,3.94-4.15,3.16-1.81-.71-1.55-4.47-1.62-5.94a52.71,52.71,0,0,1,0-6.41c.2-3.05,2.77-2.55,4.44-1a1.35,1.35,0,0,0,2.21-1.36Z"/><path class="cls-6" d="M643.6,332.58c-.23,1.47-.91,2.8-1.1,4.3a46.27,46.27,0,0,0-.21,5c0,2.9-.42,6.18.35,9,.41,1.48,2.54,1,2.86-.24.72-2.78.29-6.06.26-8.93a46.64,46.64,0,0,0-.2-4.73c-.18-1.5-.87-2.78-1.09-4.25-.07-.42-.79-.65-.87-.12Z"/><path class="cls-6" d="M636.41,331.91c1.27,1.86,4.83,1.27,6.79,1.3,3.13.07,7.62,1.26,10.29-.66.68-.48.27-1.38-.23-1.76-2.31-1.73-6.56-.62-9.28-.55-2.15.06-6.23-.77-7.58,1.3a.38.38,0,0,0,0,.37Z"/><path class="cls-6" d="M548.57,333.55c-1,5.4-.23,11.27-.19,16.73,0,2.28,3.72,2.46,3.71.17,0-5.54.08-11.84-2.22-17a.69.69,0,0,0-1.3.09Z"/><path class="cls-6" d="M549.47,334.08a20.25,20.25,0,0,0,4.4-.12c1.17-.1,3.19-.63,2.68,1.11a4.32,4.32,0,0,1-2.84,2.74c-1.32.44-2.71,0-4,.54a1.35,1.35,0,0,0-.44,2.31c1.9,1.53,5.26.64,7.19-.49a7.31,7.31,0,0,0,3.59-5.06c.84-6-8-4.94-11.11-3a1.05,1.05,0,0,0,.5,2Z"/><path class="cls-6" d="M561.4,332.5c-.09,3.1-.32,6.16-.3,9.27,0,2.83-.44,6.1.29,8.84.35,1.33,2.76,2,3.2.35.94-3.57.22-7.78,0-11.43-.13-2.09.18-6.26-1.81-7.58-.49-.32-1.35-.15-1.37.55Z"/><path class="cls-6" d="M561.77,332.72c.73,1.16,2.52.95,3.66,1.13a3.22,3.22,0,0,1,2.83,2,4.35,4.35,0,0,1,.53,1.8c-.13.73-.52.74-1.18.9-1.65.39-3.36.14-5,.56-1.33.33-1.18,2.33,0,2.76a10.65,10.65,0,0,0,7.67-.71c2.45-1.35,2.15-3.93,1.28-6.19a6.39,6.39,0,0,0-5.08-4.17c-.87-.16-5.94-.05-4.71,1.89Z"/><path class="cls-6" d="M567.44,340.61c-.79,1.41.42,3.16,1.09,4.38,1.08,2,2.35,3.83,3.59,5.7s4.57.34,3.28-1.62a63.94,63.94,0,0,0-6.55-8.62.84.84,0,0,0-1.41.16Z"/><path class="cls-5" d="M790.16,252.83c-1.9,2.44-1.14,6.89-1.17,9.84,0,1.93-.11,3.86-.16,5.79-.05,1.55-.25,3,.51,4.36a1.59,1.59,0,0,0,2.82.09c1.45-2.86.4-7.32.38-10.46,0-2.81.67-7.24-1.17-9.57a.79.79,0,0,0-1.21,0Z"/><path class="cls-5" d="M790.47,272.81c3.75,1.53,8,1,12,1,2.31,0,2.54-3.45.22-3.44-4,0-8.48-.54-12.25,1a.75.75,0,0,0,0,1.38Z"/><path class="cls-5" d="M807.94,272.78c1.84-1.95,2.19-5.23,2.84-7.74.84-3.26,1.7-6.54,2.26-9.86l-3.17.45a134.6,134.6,0,0,0,8.86,17.43c1.16,2,4.58.37,3.36-1.74q-2.54-4.36-5-8.77a45.7,45.7,0,0,1-4.16-8.19c-.4-1.25-2.7-1.25-3.06,0-1.56,5.55-2.4,11.41-4.3,16.86a1.45,1.45,0,0,0,2.4,1.52Z"/><path class="cls-5" d="M810.14,265.84c0,.39.14.58.46.56a5.35,5.35,0,0,0,.7.07c.46,0,.91.06,1.38.07a17.63,17.63,0,0,1,2.3.1c2.3.3,2.5-3.12.23-3.42a13.83,13.83,0,0,0-3.34.11c-1.18.13-2.51.18-3.08,1.34a.91.91,0,0,0,.28,1,1,1,0,0,0,.46.23,2.5,2.5,0,0,0,.61-.06Z"/><path class="cls-5" d="M823.48,253.3c-1.28,1.82-1,4.28-.9,6.43a49,49,0,0,0,.62,7.46c.84,4.33,4.14,6.16,8.22,6.76s6.57-1.47,7.9-5.31c1.5-4.29,1.42-9.83.53-14.22-.48-2.36-4.31-1.45-3.82,1a28.57,28.57,0,0,1,0,10.06,8.21,8.21,0,0,1-1.58,4.1c-1.11,1.25-2.58.8-4.07.39-6.7-1.84-2-12.32-5.53-16.63a.9.9,0,0,0-1.39,0Z"/><path class="cls-5" d="M843.18,254.37a0,0,0,0,0,0-.05s0,.05,0,.05Z"/><path class="cls-5" d="M841.64,254.78a52.67,52.67,0,0,0-.37,8.61,84.07,84.07,0,0,0,.13,8.84l3.4-1.13-.34-.53a1.69,1.69,0,0,0-2.58,0l-.22.34c-1.55,2.45,3.05,3.94,3.34,1.08s.1-5.68.1-8.49a52.13,52.13,0,0,0-.38-8.66,1.57,1.57,0,0,0-3.08-.06Z"/><path class="cls-5" d="M842.35,254.45c.32,3.5,3.4,7.29,5.2,10.21s4,7.07,7,8.62c1.34.69,3.58-.43,2.6-2.13a45.52,45.52,0,0,0-3.28-4.09c-1.18-1.59-2.23-3.26-3.29-4.93-1.8-2.85-3.8-7.13-7.06-8.53a.82.82,0,0,0-1.13.85Z"/><path class="cls-5" d="M856,272.88c1.28-.7,1.17-1.91,1.2-3.27.05-1.89,0-3.78.05-5.68,0-3.09.81-7.32-.67-10.13a1.21,1.21,0,0,0-2-.05c-1,1.94-.7,4.2-.69,6.33s0,4.1,0,6.15c0,.74-.54,8.09,2.11,6.65Z"/><path class="cls-5" d="M871.59,256.83c3.13-3.19-5.87-4.08-7.22-3.92-5.71.68-5.62,6.29-5.9,10.81-.29,4.71,1.39,9,6.44,10.13a11,11,0,0,0,6.64-.33c1.89-.86,3.25-2.93,2-4.86-1-1.5-3.89-1-3.38,1.1.35,1.44-5.58.12-6.09-.24-2-1.4-1.9-3.87-1.84-6,0-1.72-.46-5,.63-6.52s6.31-1.81,7.45-.18a.84.84,0,0,0,1.29,0Z"/><path class="cls-5" d="M876.56,253.27c-2.3,1.79-1.31,6.5-1.32,9.12,0,1.95,0,3.89,0,5.84,0,1.65-.14,3.08.7,4.55a1.14,1.14,0,0,0,1.91.1c1-1.67.73-3.4.74-5.28s0-3.89,0-5.84c0-2.38.86-6.78-1.28-8.42a.68.68,0,0,0-.78-.07Z"/><path class="cls-5" d="M877.49,262.65c3.24,1,7.67,1.6,10.86.31a.91.91,0,0,0-.11-1.68c-3.17-1.3-7.64-.65-10.82.34a.54.54,0,0,0,.07,1Z"/><path class="cls-5" d="M887.46,253.22c-1.89,2.05-1.1,6.66-1.13,9.29,0,1.76,0,3.52,0,5.27,0,1.54-.22,3,.41,4.36.39.84,1.88,1.36,2.36.26,1.31-3,.49-7.41.46-10.64,0-2.6.68-6.52-1.19-8.57a.64.64,0,0,0-.87,0Z"/><path class="cls-5" d="M94.89,430.61c-1.57,2.79-.94,7-1,10.14,0,3.31-.75,7.51.33,10.65a1.31,1.31,0,0,0,2.48,0c.64-1.87.33-3.9.32-5.85s0-3.78,0-5.67c0-3,.48-6.62-1-9.29a.67.67,0,0,0-1.14.06Z"/><path class="cls-5" d="M95.81,431.08c1.71,1.2,4,1.05,6,1.07s4.33.51,6-.52a1,1,0,0,0,.07-1.75c-1.67-1-3.66-.6-5.55-.58-2.15,0-4.79-.27-6.61,1.06a.42.42,0,0,0,0,.72Z"/><path class="cls-5" d="M96.43,438.69a21.63,21.63,0,0,0,4,.61,6.16,6.16,0,0,0,3.25-.35,1.12,1.12,0,0,0,0-1.95,6.82,6.82,0,0,0-3.73-.37,21.06,21.06,0,0,0-3.52.6.74.74,0,0,0,0,1.46Z"/><path class="cls-5" d="M109.29,430.5c-1.54,2.93-1.18,7-1.22,10.19,0,3.38-.66,7.53.31,10.76a1.39,1.39,0,0,0,2.63-.11c.94-3.09.31-7.22.27-10.45s.34-7.36-1.23-10.37a.45.45,0,0,0-.76,0Z"/><path class="cls-5" d="M109.5,431.07c1.38,1.17,3.34.9,5.07.91,2.15,0,4.65.37,6.66-.45a.88.88,0,0,0-.08-1.62c-1.91-.78-4.27-.46-6.31-.45-1.76,0-4-.33-5.37.92a.49.49,0,0,0,0,.69Z"/><path class="cls-5" d="M110.66,439.7a12,12,0,0,0,3.87.33c1.19,0,2.28.22,2.9-1a.92.92,0,0,0-.19-.92c-.77-1-2.71-.72-3.82-.7a8.46,8.46,0,0,0-3,.38c-.93.35-.56,1.61.2,1.89Z"/><path class="cls-5" d="M110.64,452.16a55.62,55.62,0,0,0,5.63.1c1.86,0,3.76.2,5.49-.55a1.1,1.1,0,0,0,0-1.93c-1.64-.74-3.34-.57-5.12-.59a59.26,59.26,0,0,0-6,.09,1.45,1.45,0,0,0,0,2.88Z"/><path class="cls-5" d="M156.47,430.5c-1.53,2.93-1.17,7-1.22,10.19-.05,3.38-.66,7.53.32,10.76a1.39,1.39,0,0,0,2.62-.11c.95-3.09.31-7.22.27-10.45s.34-7.36-1.23-10.37a.45.45,0,0,0-.76,0Z"/><path class="cls-5" d="M156.68,431.07c1.39,1.17,3.35.9,5.07.91,2.15,0,4.65.37,6.66-.45a.88.88,0,0,0-.08-1.62c-1.91-.78-4.27-.46-6.3-.45-1.77,0-4-.33-5.38.92a.49.49,0,0,0,0,.69Z"/><path class="cls-5" d="M157.84,439.7a12,12,0,0,0,3.87.33c1.19,0,2.28.22,2.9-1a.92.92,0,0,0-.19-.92c-.77-1-2.7-.72-3.82-.7a8.41,8.41,0,0,0-2.95.38c-.94.35-.57,1.61.19,1.89Z"/><path class="cls-5" d="M157.82,452.16a55.67,55.67,0,0,0,5.63.1c1.86,0,3.76.2,5.49-.55a1.1,1.1,0,0,0,0-1.93c-1.64-.74-3.35-.57-5.13-.59a59.26,59.26,0,0,0-6,.09,1.45,1.45,0,0,0,0,2.88Z"/><path class="cls-5" d="M123.45,430c-2,1.92-1.1,6.87-1.1,9.45,0,2,0,3.93,0,5.89s-.32,4.19.43,6a1.19,1.19,0,0,0,2.24.06c.68-1.68.42-3.62.42-5.41q0-3,0-6c0-1.93,0-3.86,0-5.8,0-1.7.13-3-1.13-4.21a.63.63,0,0,0-.87,0Z"/><path class="cls-5" d="M124.17,430.94c2.52,1.5,6-.11,7.91,2.79.38.56.85,1.73.17,2.31-.47.41-2.12.27-2.69.3-1.77.1-3.55,0-5.32.08s-1.73,2.7,0,2.88c3.46.37,13.38,1,11.3-5.15a7.37,7.37,0,0,0-4.45-4.43c-2.05-.76-5.27-1.13-7,.4a.53.53,0,0,0,.16.82Z"/><path class="cls-5" d="M129.41,438.24c.85,4.53,4.21,8.06,4.81,12.77.27,2.17,3.82,1.55,3.52-.67a20.1,20.1,0,0,0-2.68-7.4c-1.19-2.07-2.41-4.31-4.55-5.52a.79.79,0,0,0-1.1.82Z"/><path class="cls-5" d="M139.21,429.38c-1.07,1.24-1,2.56-1.06,4.17-.05,2.09,0,4.18,0,6.27,0,3.72-.36,7.69.2,11.38.4,2.62,4.52.61,2.45-1.24l-.15-.13a1.16,1.16,0,0,0-1.56-.08l-.41.38,2.66,1.17c.58-3.92.2-8.15.21-12.12,0-2.82.89-7.46-1.08-9.76a.82.82,0,0,0-1.25,0Z"/><path class="cls-5" d="M151.37,429.38c-1.06,1.24-1,2.56-1.05,4.17,0,2.09,0,4.18,0,6.27,0,3.72-.35,7.69.21,11.38.4,2.62,4.52.61,2.45-1.24l-.15-.13a1.17,1.17,0,0,0-1.57-.08l-.4.38,2.65,1.17c.59-3.92.21-8.15.22-12.12,0-2.82.88-7.46-1.08-9.76a.83.83,0,0,0-1.26,0Z"/><path class="cls-5" d="M139.7,429.47c-.88,1.22.9,2.92,1.59,3.83,1,1.35,1.92,3.11,3.22,4.18a1.53,1.53,0,0,0,2.4-1.69c-.39-1.26-5.81-8.24-7.21-6.32Z"/><path class="cls-5" d="M145.85,437.27c1.43-.42,2.43-1.72,3.46-2.72,1.21-1.19,2.47-2.32,3.71-3.47s-.65-2.65-1.81-1.7a29.55,29.55,0,0,0-6.21,7c-.34.52.38,1,.85.9Z"/><path class="cls-5" d="M170.66,430c-1.93,2.28-1,7.08-1,9.87,0,2,0,3.94,0,5.91s-.35,4,.58,5.7c.32.6,1.4.83,1.77.14.9-1.65.63-3.27.63-5.13,0-2.13,0-4.26,0-6.39,0-2,0-3.92,0-5.89,0-1.58.06-2.89-1-4.11a.61.61,0,0,0-.92-.1Z"/><path class="cls-5" d="M181.89,430.44c-2.3,1.66-1.34,6.46-1.35,9,0,3.82,0,7.64,0,11.46,0,2.08,3.39,2.45,3.41.33,0-3.83,0-7.66,0-11.49,0-2,0-4.09-.09-6.12-.09-1.4,0-2.27-1.21-3.11a.69.69,0,0,0-.8-.06Z"/><path class="cls-5" d="M170.44,431.44c.75,3.47,3.64,6.88,5.36,10,1,1.73,1.89,3.48,2.77,5.25.75,1.49,1.27,3.1,2.62,4.13a1.39,1.39,0,0,0,2.25-1.42c-.79-3.29-3.18-6.68-4.84-9.61a69.43,69.43,0,0,0-6.22-9.33c-.74-.92-2.17,0-1.94,1Z"/><path class="cls-5" d="M183.65,431.68c1.69,1.6,5,.85,7.15.85,2.53,0,5.78.61,8.06-.65.52-.29.26-1-.15-1.2-2.23-1.23-5.54-.6-8-.6-2.14,0-5.41-.74-7.07.86a.52.52,0,0,0,0,.74Z"/><path class="cls-5" d="M191.23,431.3c-2.28,1.14-1.3,6.63-1.32,8.74s0,4.3-.08,6.44c0,1.66-.25,3.33.43,4.87.35.78,1.77,1.36,2.23.31,1-2.36.54-5.05.5-7.58,0-2.25-.05-4.51-.06-6.76,0-.63.39-7.06-1.7-6Z"/><path class="cls-6" d="M441.71,333c-1.71,1.68-1.11,5.28-1.13,7.49,0,1.66,0,3.33,0,5,0,1.84-.28,3.61.61,5.25.32.58,1.36.83,1.74.15,1.46-2.64.68-6.74.66-9.69,0-2.48.73-6.3-1.16-8.2a.53.53,0,0,0-.72,0Z"/><path class="cls-6" d="M433.56,333.33c2.16,1.75,6.34,1,9,1,3.23.09,6.84.61,10-.22a1.28,1.28,0,0,0-.15-2.47c-3-.79-6.49-.3-9.54-.21-2.72.07-7.16-.75-9.33,1.06a.56.56,0,0,0,.06.81Z"/><path class="cls-6" d="M454.18,331.71c-1.26,2.47-.95,5.75-1,8.47,0,3.4-.52,7.23.31,10.53a1.31,1.31,0,0,0,2.49,0c.8-3.19.31-6.86.29-10.14,0-2.74.33-6.24-.95-8.72a.65.65,0,0,0-1.17-.09Z"/><path class="cls-6" d="M454.58,333.12c1.55,1.37,4,1,5.92,1,2.44,0,5.27.43,7.53-.58.91-.41.55-1.49-.17-1.83-2-.95-4.65-.55-6.8-.54s-4.87-.44-6.55,1.07a.59.59,0,0,0,.07.84Z"/><path class="cls-6" d="M455.22,341.26a9.52,9.52,0,0,0,3.64.79c1.16,0,2.25.17,3.11-.71a.81.81,0,0,0,0-1c-.84-.85-1.85-.75-3-.73a9.91,9.91,0,0,0-3.8.8.5.5,0,0,0,.05.87Z"/><path class="cls-6" d="M454.26,350.65c2,.94,4.36.89,6.57.89,2.4,0,5.2.44,7.43-.52.91-.39.56-1.5-.17-1.83-2.08-.93-4.86-.47-7.1-.47s-4.7-.11-6.81.92c-.42.2-.29.84.08,1Z"/><path class="cls-6" d="M482.62,335c-.27-3.95-6.12-5.44-9.31-4.34a5.82,5.82,0,0,0-3.77,3.86,34.2,34.2,0,0,0-1.09,9c-.07,5.19,4.31,8.42,9.24,8.53,2.09,0,4.42-.36,5.94-1.91s1.93-3.72.43-5.37c-.59-.65-2.09-.35-2.18.61-.15,1.74-.59,2.79-2.46,3.2a7.66,7.66,0,0,1-3.68-.22c-3.21-1-3.85-3.33-3.64-6.38.14-2.09-.29-5.41.75-7.28,1.41-2.53,6.77-1.77,7.86.69.37.83,2,.66,1.91-.35Z"/><path class="cls-6" d="M485.93,331.43c-1.09,3.17-.86,6.49-.86,9.8,0,3.11-.28,6.34.47,9.38a1.16,1.16,0,0,0,2.19.07c.8-3.17.46-6.65.47-9.9s.17-6.26-.86-9.3a.78.78,0,0,0-1.41-.05Z"/><path class="cls-6" d="M487.11,341a11.44,11.44,0,0,0,5.27,1c2,0,4.11.25,6-.48,1-.38.54-1.7-.25-2-1.68-.63-3.56-.44-5.34-.42-2,0-3.95,0-5.76,1a.52.52,0,0,0,.05.9Z"/><path class="cls-6" d="M497.55,332c-1.45,2.86-1.08,6.39-1.09,9.52,0,3-.44,6.3.71,9.09a1.06,1.06,0,0,0,1.92-.11c1.21-3,.65-6.86.63-10.08,0-2.78.25-5.79-1.06-8.33a.62.62,0,0,0-1.11-.09Z"/><path class="cls-6" d="M501.58,331.92c-1.42,2.81-1.06,6-1.07,9.1s-.39,6.53.46,9.49a1.36,1.36,0,0,0,2.58-.09c.88-3.13.43-6.85.41-10.09,0-2.85.26-5.73-1.06-8.34a.74.74,0,0,0-1.32-.07Z"/><path class="cls-6" d="M515.72,331.81c-2.1,1.95-1.33,6.27-1.34,8.9,0,3.27-.48,7,.4,10.18.5,1.81,3.76.67,2.84-1.05l-.36-.67c-.39-.72-1.8-.86-2.14,0,1.7,1.51,2.64,1.71,2.8.6a3.39,3.39,0,0,0,.08-1.19c0-.8,0-1.6,0-2.4,0-1.75,0-3.5,0-5.25,0-2.76.77-7.1-1.42-9.15a.64.64,0,0,0-.88,0Z"/><path class="cls-6" d="M502,333.66c2,2.85,3.41,6.26,5.74,8.89a49.08,49.08,0,0,1,3.81,4.34c1.15,1.66,2.1,3.24,3.92,4.2,1.47.78,2.8-1.17,1.89-2.38-1.24-1.65-2.5-3.29-3.75-4.95s-2.7-2.64-3.87-4.15c-2-2.61-3-5.92-6.05-7.63-1-.59-2.45.61-1.69,1.68Z"/><path class="cls-6" d="M520.12,331.87c-1.84,2.42-1.21,6.33-1.22,9.21s-.5,6.61.57,9.48c.33.87,1.65,1.17,2,.13,1.17-3.33.6-7.54.58-11,0-2.52.4-5.55-1.15-7.7-.16-.22-.59-.37-.79-.1Z"/><path class="cls-6" d="M520.71,332.46c3.64,1.49,9.1,1.46,12.92.66a1.17,1.17,0,0,0,0-2.26,25.47,25.47,0,0,0-6.17-.32c-2.33,0-4.47,0-6.64.93a.54.54,0,0,0-.06,1Z"/><path class="cls-6" d="M521.57,340.33a8,8,0,0,0,3.26.53,12.43,12.43,0,0,0,3.7-.27,1.2,1.2,0,0,0-.07-2.32,12,12,0,0,0-6.86.21,1.06,1.06,0,0,0,0,1.85Z"/><path class="cls-6" d="M521.15,350.21a19.05,19.05,0,0,0,6.92,1c2,0,4.15.29,6-.36a1.19,1.19,0,0,0-.06-2.29c-1.92-.67-4.2-.39-6.21-.36a18.36,18.36,0,0,0-6.63.92.61.61,0,0,0-.05,1.13Z"/><path class="cls-6" d="M21,621c-1,.32-.81,1.3-.1,1.83,1.3,1,4.32.92,5.83.68.8-.12,3-.52,3.18-1.57s-1.85-1.4-2.55-1.39a.22.22,0,0,0,0,.44c.45.1,1.9.3,1.84,1,0,.57-2.81.94-3.1,1a11.32,11.32,0,0,1-2.4-.08c-.26,0-4-.62-2.57-1.79.07-.06,0-.15-.09-.13Z"/><path class="cls-6" d="M22.05,621.2c.36-1.17.74-2.93,2.41-2.67s1.46,1.9,2.28,2.85a.18.18,0,0,0,.31-.12c-.09-1.5-1.3-3.45-3-3.29a2.7,2.7,0,0,0-2.28,3.21c0,.13.24.16.28,0Z"/><path class="cls-6" d="M22,614a.5.5,0,0,0-.29.87c.47.49,1.17,0,1.37-.46a1.12,1.12,0,0,0-.43-1.47c-.4-.18-1.2,0-1,.58a.24.24,0,0,0,.34.14c.2-.09.37-.25.49,0a.66.66,0,0,1,0,.5l-.18.23c-.2,0-.25-.06-.17-.21s0-.23-.12-.22Z"/><path class="cls-6" d="M25.9,610.63a1.27,1.27,0,0,0-.15.69.29.29,0,0,0,.22.25c.81.29,1.94-.31,1.62-1.29a.9.9,0,0,0-.83-.62c-.3,0-.72.14-.68.51a.22.22,0,0,0,.21.2c.29,0,.57-.29.7.11.18.57-.54.66-.92.58l.21.18a2.94,2.94,0,0,1-.05-.51c0-.16-.24-.27-.33-.1Z"/><path class="cls-6" d="M25.86,615.18c-.41.25-.14.77.22.93a1.18,1.18,0,0,0,1.38-.63,1.16,1.16,0,0,0-.1-1.49c-.34-.31-1-.42-1.21.06a.26.26,0,0,0,.24.36c.43-.06.78.1.58.62a1,1,0,0,1-.28.41c-.44.33-.51.07-.63-.19a.15.15,0,0,0-.2-.07Z"/><path class="cls-6" d="M23.88,607.34c-.09.43.47.38.65.11s.34-1.5-.42-1.24c-.13,0-.06.23.06.23a.55.55,0,0,1,.28.72c0,.24-.21.3-.55.18Z"/><path class="cls-6" d="M24.2,606.2c-.4-.31-.95.21-.87.64a.12.12,0,0,0,.23,0,.92.92,0,0,1,.63-.6s0,0,0-.06Z"/><path class="cls-6" d="M232,601.09c-1,.32-.81,1.3-.11,1.83,1.3,1,4.32.92,5.84.68.79-.12,3-.52,3.17-1.57s-1.85-1.4-2.55-1.39a.22.22,0,0,0,0,.44c.46.1,1.9.3,1.85,1,0,.57-2.81.94-3.11,1a11.34,11.34,0,0,1-2.4-.08c-.26,0-4-.62-2.57-1.79.07-.06,0-.15-.08-.13Z"/><path class="cls-6" d="M233.05,601.33c.36-1.17.74-2.93,2.41-2.67s1.46,1.9,2.29,2.85a.18.18,0,0,0,.31-.12c-.1-1.5-1.31-3.45-3-3.29a2.71,2.71,0,0,0-2.28,3.21c0,.13.24.16.28,0Z"/><path class="cls-6" d="M231.18,590.1a.5.5,0,0,0-.29.87c.47.49,1.17,0,1.38-.46a1.14,1.14,0,0,0-.44-1.47c-.39-.18-1.2,0-1,.58a.24.24,0,0,0,.34.14c.2-.09.37-.25.5,0a.67.67,0,0,1,0,.5l-.17.23c-.21,0-.26-.06-.17-.21s0-.23-.13-.22Z"/><path class="cls-6" d="M238.76,590a1.37,1.37,0,0,0-.15.69.29.29,0,0,0,.22.25c.82.29,1.95-.3,1.62-1.29a.91.91,0,0,0-.83-.62c-.3,0-.72.14-.67.51a.21.21,0,0,0,.21.2c.29,0,.56-.28.69.11.18.58-.54.67-.92.58l.21.18a2.85,2.85,0,0,1,0-.51c0-.16-.25-.26-.34-.1Z"/><path class="cls-6" d="M236.86,595.31c-.4.25-.14.77.22.93a1.19,1.19,0,0,0,1.39-.63,1.16,1.16,0,0,0-.11-1.49c-.34-.31-1-.42-1.2.06a.25.25,0,0,0,.23.36c.43-.06.79.1.58.62a1,1,0,0,1-.28.41c-.44.33-.51.07-.62-.19a.16.16,0,0,0-.21-.07Z"/><path class="cls-6" d="M234.89,587.47c-.09.43.47.38.64.11s.35-1.5-.42-1.24c-.12,0-.05.23.06.23a.56.56,0,0,1,.29.72c0,.24-.22.3-.55.18Z"/><path class="cls-6" d="M237.29,583.45c-.4-.31-.95.2-.87.64a.12.12,0,0,0,.23,0,1,1,0,0,1,.63-.6s0,0,0,0Z"/><path class="cls-6" d="M57.51,564.5c.05,1-.32,1.51-1.09,1.54-.59.12-1.18.21-1.77.28a11.7,11.7,0,0,1-1.87.07,6.53,6.53,0,0,1-2.85-.68c-1.17-1.11.61-1.19,1.36-1.35.26-.06.16-.44-.08-.44-.7,0-2.66.27-2.54,1.37s2.67,1.53,3.47,1.63c1.5.19,4.21.22,5.52-.68.76-.53.88-1.55-.08-1.87a.07.07,0,0,0-.07.13Z"/><path class="cls-6" d="M56.8,564.6a2.72,2.72,0,0,0-2.25-3.21c-1.73-.21-2.94,1.75-3,3.27,0,.14.2.25.3.13.79-.86.73-2.48,2.1-2.83,1.75-.44,2.22,1.4,2.6,2.63,0,.12.24.16.28,0Z"/><path class="cls-6" d="M58.26,555c-.08-.14-.34.2-.39-.16a.42.42,0,0,1,.11-.44c.17-.13.25,0,.42.06s.26,0,.31-.08c.22-.55-.47-.82-.91-.68a1.09,1.09,0,0,0-.5,1.46c.19.51.86,1,1.36.55a.52.52,0,0,0-.27-.91.14.14,0,0,0-.13.2Z"/><path class="cls-6" d="M51,553.4a3.19,3.19,0,0,1,0,.54l.18-.19c-.37.09-1.07,0-.92-.57s.48-.15.74-.12a.18.18,0,0,0,.19-.15c0-.36-.29-.55-.63-.56a.87.87,0,0,0-.86.58c-.35,1,.81,1.63,1.65,1.33a.27.27,0,0,0,.18-.26,1.39,1.39,0,0,0-.14-.67.18.18,0,0,0-.34.07Z"/><path class="cls-6" d="M54.52,557.72c-.05.08-.09.24-.17.3-.3.19-.57-.15-.68-.36-.25-.46-.05-.84.48-.77a.24.24,0,0,0,.26-.36.76.76,0,0,0-1.2-.06,1.21,1.21,0,0,0,0,1.61,1.15,1.15,0,0,0,1.34.51c.35-.17.56-.66.18-.91a.14.14,0,0,0-.2,0Z"/><path class="cls-6" d="M54.66,550.75c-.34.07-.53,0-.56-.22a.63.63,0,0,1,.29-.68c.15,0,.19-.2,0-.24-.75-.25-.64.87-.39,1.25s.73.31.65-.11c0,0,0,0,0,0Z"/><path class="cls-6" d="M54.38,549.66a.88.88,0,0,1,.62.58c0,.1.21.16.24,0,.08-.42-.47-1-.87-.65,0,0,0,0,0,0Z"/><path class="cls-6" d="M231.07,544c.05,1-.32,1.51-1.09,1.54-.59.12-1.18.21-1.77.28a11.66,11.66,0,0,1-1.87.07,6.53,6.53,0,0,1-2.85-.68c-1.17-1.11.61-1.19,1.36-1.35.26-.06.16-.44-.08-.44-.7,0-2.66.27-2.54,1.37s2.67,1.53,3.47,1.63c1.5.2,4.21.23,5.52-.68.76-.53.88-1.55-.08-1.87a.07.07,0,0,0-.07.13Z"/><path class="cls-6" d="M230.36,544.09a2.72,2.72,0,0,0-2.25-3.21c-1.73-.21-2.94,1.75-3,3.27,0,.14.2.25.3.14.79-.87.73-2.49,2.1-2.84,1.75-.44,2.22,1.41,2.6,2.63,0,.12.24.16.28,0Z"/><path class="cls-6" d="M230.44,533.06l-.3.12-.1-.26a.46.46,0,0,1,.09-.45c.16-.13.26,0,.43,0a.23.23,0,0,0,.33-.14c.2-.58-.64-.75-1-.56a1.13,1.13,0,0,0-.36,1.49c.22.48.88.88,1.34.45a.51.51,0,0,0-.27-.9.13.13,0,0,0-.13.2Z"/><path class="cls-6" d="M224.9,536.28a3.31,3.31,0,0,1-.06.54l.18-.2c-.36.09-1.06,0-.91-.56s.48-.16.74-.13a.18.18,0,0,0,.19-.14c.05-.37-.29-.55-.63-.56a.87.87,0,0,0-.86.58c-.35,1,.81,1.62,1.65,1.32a.25.25,0,0,0,.18-.26,1.35,1.35,0,0,0-.14-.66.18.18,0,0,0-.34.07Z"/><path class="cls-6" d="M230.27,538.13c-.05.08-.09.24-.18.3-.29.2-.56-.15-.67-.36-.25-.46,0-.84.48-.77a.24.24,0,0,0,.26-.35.76.76,0,0,0-1.2-.07,1.2,1.2,0,0,0,0,1.61,1.14,1.14,0,0,0,1.34.51c.35-.17.55-.66.18-.91a.14.14,0,0,0-.2,0Z"/><path class="cls-6" d="M228.22,530.24c-.34.07-.53,0-.56-.22a.63.63,0,0,1,.29-.68.12.12,0,0,0,0-.24c-.75-.25-.64.87-.39,1.25s.73.31.65-.11c0,0,0,0,0,0Z"/><path class="cls-6" d="M226.08,527.06a.88.88,0,0,1,.62.58c0,.09.21.15.24,0,.08-.42-.47-1-.87-.66a0,0,0,0,0,0,.06Z"/><path class="cls-6" d="M60.79,564.51a0,0,0,1,0,0,0s0,0,0,0Z"/><path class="cls-6" d="M61,564.9c.66,1.2-1.06,1.8-1.84,2.17-.17.08,0,.31.11.29a2.67,2.67,0,0,0,1.79-1,1.48,1.48,0,0,0,0-1.53c0-.05-.12,0-.09,0Z"/><path class="cls-6" d="M51.79,570.69a6.52,6.52,0,0,0,2.8-.37c.13-.05,0-.24-.08-.22-.46.07-.91.19-1.37.27s-.91.11-1.36.2c-.07,0-.06.11,0,.12Z"/><path class="cls-6" d="M47,564.58a1.73,1.73,0,0,0,.29,2c.1.1.31,0,.26-.13-.09-.31-.18-.63-.26-.94s-.08-.63-.17-.92c0-.05-.08-.08-.12,0Z"/><path class="cls-6" d="M17.62,622.75a1.35,1.35,0,0,0,.79.89c.05,0,.07-.06,0-.07a1.28,1.28,0,0,1-.76-.83s-.06,0-.05,0Z"/><path class="cls-6" d="M32,623a10.09,10.09,0,0,1-2.78,1.67c-.15.06-.05.29.1.26A5.14,5.14,0,0,0,32.08,623s0-.1-.07-.07Z"/><path class="cls-6" d="M26.79,625.56a35.12,35.12,0,0,1-5.71-.49c-.25,0-.45.33-.17.44a10.52,10.52,0,0,0,5.91.32.14.14,0,0,0,0-.27Z"/><path class="cls-6" d="M32.85,624.78A13,13,0,0,1,31.17,626c-.72.35-1.49.6-2.22.93-.16.08-.05.31.11.29,1.28-.23,3.51-.93,3.92-2.37a.08.08,0,0,0-.13-.09Z"/><path class="cls-6" d="M228.72,602.93a5.85,5.85,0,0,0,4.9,2.36.27.27,0,0,0,0-.53,13.74,13.74,0,0,1-4.74-2.06c-.15-.12-.3.1-.19.23Z"/><path class="cls-6" d="M238.48,605.25a14.89,14.89,0,0,0,1.49-.41,10,10,0,0,0,1.32-.39c.16-.06.05-.3-.1-.27a71.94,71.94,0,0,0-2.74,1c-.06,0,0,.12,0,.11Z"/><path class="cls-6" d="M235.42,607.37a5.09,5.09,0,0,0,1.78-.12,7.37,7.37,0,0,0,1.74-.42c.28-.11.21-.58-.11-.54-.56.07-1.1.21-1.65.33a8.47,8.47,0,0,0-1.81.4c-.16.07-.1.32,0,.35Z"/><path class="cls-6" d="M225.72,544.23a2,2,0,0,0,1.66.29.17.17,0,0,0,0-.31c-.49-.15-1-.08-1.49-.27-.18-.07-.29.2-.13.29Z"/><path class="cls-6" d="M227.62,548a5.06,5.06,0,0,0,4-.78c.15-.11,0-.3-.18-.25a8.74,8.74,0,0,1-3.78.64c-.23,0-.27.35,0,.39Z"/><path class="cls-6" d="M55.82,564.83a6.1,6.1,0,0,0-1.54-.05c-.58,0-1.16-.06-1.74-.09a.18.18,0,0,0,0,.35,4.68,4.68,0,0,0,3.34-.09s0-.1,0-.12Z"/><path class="cls-6" d="M79.83,611.58a5.1,5.1,0,0,0-1.27.66.25.25,0,0,0,0,.26c.47,1.5,3.74.89,4.82.85s4.75.07,5.08-1.34a.33.33,0,0,0-.12-.32,2.49,2.49,0,0,0-1.52-.35.21.21,0,0,0,0,.41c1.38.47-1.19.74-1.74.8s-1.38.12-2.08.15-1.41.09-2.09,0a2.45,2.45,0,0,1-1.63-.4,9.13,9.13,0,0,1,.7-.69s0-.1,0-.08Z"/><path class="cls-6" d="M80.7,611.11a2.88,2.88,0,0,1,2.26-2,3.16,3.16,0,0,1,2.32,1.13s.1,0,.1-.06c-.09-1-1.36-1.52-2.26-1.46a2.87,2.87,0,0,0-2.57,2.35.08.08,0,0,0,.15.06Z"/><path class="cls-6" d="M83.47,604a1.78,1.78,0,0,1,.59,1c0,.53-.55.81-.83.33,0-.08-.19-.1-.21,0-.12.61.75.79,1.11.39.55-.63,0-1.42-.51-1.87a.1.1,0,0,0-.15.12Z"/><path class="cls-6" d="M82.05,601.89a1.06,1.06,0,0,0-1.23.31c-.22.37.16.76.44,1a1.1,1.1,0,0,0,1.28.11c.33-.23.58-.72.21-1a.16.16,0,0,0-.23.05.86.86,0,0,0-.07.21c-.12.38-.32.57-.75.41s-.43-.22-.36-.5.37-.34.7-.36c.11,0,.1-.16,0-.19Z"/><path class="cls-6" d="M79.2,606.13c-1,0-.92,1.26-.07,1.46a1,1,0,0,0,1.09-.49c.21-.37.29-1-.09-1.26a.16.16,0,0,0-.22,0c-.18.22,0,.45-.12.72s-.18.39-.42.42-.6-.48-.14-.6a.15.15,0,0,0,0-.3Z"/><path class="cls-6" d="M83.55,599.8a1,1,0,0,0,1.82-.24,1,1,0,0,0-.53-1.12.8.8,0,0,0-1.2.32.25.25,0,0,0,.19.29c.25,0,.66,0,.73.27s-.48.53-.75.31-.33,0-.26.17Z"/><path class="cls-6" d="M80.32,595.49c-.54.26-.22,1,.32,1s1-1,.34-1.23a.13.13,0,0,0-.18.16.76.76,0,0,1,0,.45c0,.28-.1.28-.25,0-.2-.08-.25-.18-.14-.3a.08.08,0,0,0-.1-.12Z"/><path class="cls-6" d="M88,594.57c-.37.58.73,1,1.09.42s-.51-1.68-1.16-1.14c-.12.1,0,.27.09.31s.38,0,.55.17c.53.42-.31.67-.46.25a.07.07,0,0,0-.11,0Z"/><path class="cls-6" d="M84.47,591.3c.13.51.69.89,1,.28s-.29-1.18-.82-1.25a.13.13,0,0,0-.1.21,1.1,1.1,0,0,0,.25.23l.19.13c.28.22.17.33-.3.36-.06-.15-.29-.12-.25,0Z"/><path class="cls-6" d="M119.72,603.22c-1.34.76-1.53,1.91.09,2.38,2.69.77,6.79.62,9.26-.75a.05.05,0,0,0,0-.1,12.27,12.27,0,0,1-5,1,16.63,16.63,0,0,1-2.22-.19c-.68-.09-4.16-.4-2-2.26,0,0,0-.13-.06-.1Z"/><path class="cls-6" d="M129.59,604.64c.69-.17.21-1-.15-1.24a3.45,3.45,0,0,0-2.5-.41c-.28,0-.15.41.07.43.4,0,.81,0,1.21.1s1.83.34,1.34,1.08c0,0,0,0,0,0Z"/><path class="cls-6" d="M120.82,603.47a5.9,5.9,0,0,1,.69-3.75.2.2,0,0,0-.31-.24,3.63,3.63,0,0,0-.76,4.08.2.2,0,0,0,.38-.09Z"/><path class="cls-6" d="M123.88,599.58a3.31,3.31,0,0,1,1.63,2.78c0,.22.36.24.35,0a3.45,3.45,0,0,0-1.93-2.87c-.05,0-.09,0-.05.08Z"/><path class="cls-6" d="M121.92,598.42l-.08,0c-.07,0-.06.1,0,.09h.08a0,0,0,0,0,0-.06Z"/><path class="cls-6" d="M122,598.46a2.47,2.47,0,0,0-.06-1.21l-.22.07a1,1,0,0,0,.72.78.1.1,0,0,0,.13-.06,5.42,5.42,0,0,1,.61-1.2l-.28-.05a4.09,4.09,0,0,1,0,1.56c0,.14.18.17.24,0a2.34,2.34,0,0,0,0-1.67.16.16,0,0,0-.28-.05,2.93,2.93,0,0,0-.56,1.32l.11-.1a.57.57,0,0,1-.52-.59c0-.1-.16-.18-.21-.07a2.21,2.21,0,0,0,0,1.2.16.16,0,0,0,.31,0Z"/><path class="cls-6" d="M121.88,593.21c-.36-.13-.52.36-.33.61.31.43,1,.2,1.25-.14.7-.87-.45-2.18-1.33-1.43-.14.12,0,.36.19.32a.67.67,0,0,1,.81.2.52.52,0,0,1,0,.51l-.12.15c-.15.18-.3.14-.45-.1a.08.08,0,0,0,0-.12Z"/><path class="cls-6" d="M121.91,588.56c-.27.74.83.82,1.12.23s-.2-1.49-.91-1.37c-.13,0-.14.2,0,.27a1,1,0,0,1,.42.38.53.53,0,0,1,.08.25c0,.26-.11.34-.4.26a.14.14,0,0,0-.27,0Z"/><path class="cls-6" d="M125,589.56c-.73.11-.22,1.52.63,1.06s.05-1.84-.7-1.24c-.13.11,0,.31.13.31s.52,0,.19.23-.2,0-.1-.15,0-.23-.15-.21Z"/><path class="cls-6" d="M116.79,605.85a2.51,2.51,0,0,0,2.85,1.29.21.21,0,0,0-.07-.41,3.5,3.5,0,0,1-2.55-1c-.1-.12-.32,0-.23.16Z"/><path class="cls-6" d="M152.75,565.25a3.32,3.32,0,0,0,1.53-.15c.07,0,0-.15,0-.13a6.81,6.81,0,0,1-1.49.17.06.06,0,1,0,0,.11Z"/><path class="cls-6" d="M149.37,564.53a7.34,7.34,0,0,0,2.8.8c.2,0,.18-.26,0-.29-.49-.09-1-.18-1.46-.3s-.86-.27-1.29-.35c-.08,0-.12.1,0,.14Z"/><path class="cls-6" d="M149.78,562.92c1.05-.89,2.54-1.65,3.52-.24.09.13.32.09.28-.09a1.59,1.59,0,0,0-1.52-1.08,3.22,3.22,0,0,0-2.42,1.25c-.1.09,0,.25.14.16Z"/><path class="cls-6" d="M153.9,563.33a2.78,2.78,0,0,1,.35.92,6.36,6.36,0,0,1-.06.87.18.18,0,0,0,.33.1,1.77,1.77,0,0,0-.48-2,.09.09,0,0,0-.14.11Z"/><path class="cls-6" d="M147.32,565a3.15,3.15,0,0,0,1.1.87,4.35,4.35,0,0,0,1.5.57c.22,0,.21-.27,0-.34-.47-.2-1-.35-1.43-.58a11.22,11.22,0,0,0-1.11-.63c-.06,0-.14.05-.1.11Z"/><path class="cls-6" d="M154.91,567.26a56.66,56.66,0,0,1-6.25.37c-.24,0-.29.38,0,.42a13,13,0,0,0,6.35-.64c.09,0,0-.16-.06-.15Z"/><path class="cls-6" d="M151.51,558.23c.13.55,1.12.49,1.31,0,.31-.79-.77-1-1.28-.8-.18.08-.06.3.08.32s.66,0,.69.17-.39.46-.48.24-.37-.15-.32.06Z"/><path class="cls-6" d="M150.6,553.7c0,.48.43,1.06,1,.7s0-1.15-.44-1.34a.18.18,0,0,0-.21.26.88.88,0,0,1,.21.42c.09.17.07.22-.07.13a.24.24,0,0,1-.23-.21c0-.08-.24-.09-.22,0Z"/><path class="cls-6" d="M153,549.21c-.17.19,0,.45.21.55a.6.6,0,0,0,.76-.37c.29-.62-.24-1.57-1-1.29-.13,0-.09.27,0,.29a.64.64,0,0,1,.55.41.54.54,0,0,1,0,.45c0,.16-.12.18-.29.09s-.28,0-.26-.12a0,0,0,0,0,0,0Z"/><path class="cls-6" d="M196.55,598.38a7.32,7.32,0,0,1,1.4-2.55c.55-.59,1.32-1,2-.36.46.38.63,1.33.88,1.86a.18.18,0,0,0,.33-.07c0-1.22-.88-3.07-2.34-2.78-1.62.32-2.47,2.35-2.73,3.79a.22.22,0,0,0,.43.11Z"/><path class="cls-6" d="M201,595.07c.43-.4,1.12-1,1.77-.72.45.22.5.86.64,1.29.06.2.42.24.45,0a1.77,1.77,0,0,0-.87-2c-1-.39-1.82.39-2.4,1.06-.23.26.16.59.41.37Z"/><path class="cls-6" d="M200.6,598.76c-.8,0-1.62,0-2.43,0-.26,0-.23.36,0,.38a6,6,0,0,0,2.45-.29.07.07,0,0,0,0-.14Z"/><path class="cls-6" d="M201.57,596.15a1.73,1.73,0,0,0,2.27,0,.23.23,0,0,0-.17-.38,6.86,6.86,0,0,1-1.92.05c-.16,0-.36.19-.18.32Z"/><path class="cls-6" d="M195.08,597.51c-.75.06-1.46.62-1.11,1.43s1.63,1,2.37,1a.14.14,0,0,0,0-.27,4.6,4.6,0,0,1-1.55-.44.65.65,0,0,1-.4-.83c.09-.29.45-.48.72-.58s.16-.34,0-.32Z"/><path class="cls-6" d="M204.94,595.38a1,1,0,0,1,.32.81c0,.57-.49.85-.92,1.13-.06,0,0,.13.06.1.51-.29,1.31-.72,1.43-1.35.07-.4-.32-1.37-.86-1a.21.21,0,0,0,0,.34Z"/><path class="cls-6" d="M195.61,592.29a.78.78,0,0,0,1-.93.68.68,0,0,0-1.25-.12.22.22,0,0,0,.39.22.43.43,0,0,1,.16-.14c.24-.12.37-.05.41.2.24.26.16.49-.22.69a.78.78,0,0,1-.5,0s0,0,0,0Z"/><path class="cls-6" d="M196.7,587.66c.43.6,1.51.4,1.36-.45-.11-.66-1.3-.81-1.2-.06a.19.19,0,0,0,.23.13l.25,0c.12.2,0,.26-.38.17-.16-.09-.38.09-.26.25Z"/><path class="cls-6" d="M203,586.49c-.58.63.82,1.23,1.32.63s-.48-1.52-.78-.84c0,.1.07.19.16.17s.23,0,.15.37a.39.39,0,0,1-.58-.21c0-.12-.17-.23-.27-.12Z"/><path class="cls-6" d="M201.56,582.7c.18.69,1.21.49,1.31-.15a1,1,0,0,0-1.39-.95.21.21,0,0,0,0,.33,2.14,2.14,0,0,0,.4.2.5.5,0,0,1,.27.18c0,.15-.09.19-.2.12a.24.24,0,0,0-.35.27Z"/><path class="cls-6" d="M201.63,590.09a.81.81,0,0,0,0,.93.67.67,0,0,0,.76.21.54.54,0,0,0,.25-.72,1,1,0,0,0-.92-.5.09.09,0,0,0,0,.18l.26.11q.22.13,0,0c.11-.19-.2-.37-.31-.18Z"/><path class="cls-6" d="M196.06,579.53c.18.38.94.9,1.2.29s-.36-1-.82-1a.11.11,0,0,0,0,.22l.17,0c.38,0,.52.26.41.75-.33.24-.65-.2-.87-.36,0,0-.07,0-.05,0Z"/><path class="cls-6" d="M136.75,646.38a11,11,0,0,1,2.06-3.69,2,2,0,0,1,3.16,0,7.48,7.48,0,0,1,.72,1.41.24.24,0,0,0,.45-.12c-.09-1.68-1.64-3.29-3.39-2.83-2.06.55-3.24,3.21-3.38,5.14,0,.19.3.29.38.11Z"/><path class="cls-6" d="M138.43,646.89c.43.47,1.38.36,2,.25a2.93,2.93,0,0,0,1.78-1c.13-.17-.1-.34-.25-.32-.64.1-1.26.37-1.9.51s-1.17,0-1.59.33a.14.14,0,0,0,0,.19Z"/><path class="cls-6" d="M133.84,645.39c-1.08.29-2.06,1.27-.81,2.12,1.7,1.14,5.17,1,7.07.8a.21.21,0,0,0,0-.42c-1.1-.07-2.19,0-3.29-.07a14.81,14.81,0,0,1-2.1-.22l-.53-.1c-1-.06-1.07-.71-.29-2a.07.07,0,0,0,0-.14Z"/><path class="cls-6" d="M142.52,640.79c0-.48.43-.7.71-1a.19.19,0,0,0-.13-.32c-.75-.05-1,.77-.92,1.38a.17.17,0,0,0,.34,0Z"/><path class="cls-6" d="M143.8,638.68a8.81,8.81,0,0,1-.55-1.11l-.08.2c.32-.14.7.36,1.08.22a.45.45,0,0,0,.24-.21c.15-.27.07-.53.33-.79h-.23a3.47,3.47,0,0,1,.25.29.11.11,0,0,0,.2-.09.81.81,0,0,0-.21-.41.17.17,0,0,0-.24,0,1.23,1.23,0,0,0-.3.38c-.12.24,0,.54-.4.46s-.53-.34-.91-.14a.17.17,0,0,0-.07.24,3.23,3.23,0,0,0,.84,1s.07,0,.05,0Z"/><path class="cls-6" d="M145.88,639.06a5.55,5.55,0,0,1,1.19,1.5,6.46,6.46,0,0,1,.46,1.84c0,.14.27.17.3,0A3.49,3.49,0,0,0,146,639c-.06,0-.13.06-.08.11Z"/><path class="cls-6" d="M144.21,643.25a4.16,4.16,0,0,0,2.93-.1.24.24,0,0,0-.14-.44,9.33,9.33,0,0,0-1.28.16,5.55,5.55,0,0,1-1.41,0,.22.22,0,0,0-.1.42Z"/><path class="cls-6" d="M144.34,645.38a3.89,3.89,0,0,0,4-1c.07-.09-.07-.23-.16-.17a8,8,0,0,1-1.91.93,10.08,10.08,0,0,1-1.9.15c-.05,0,0,.07,0,.09Z"/><path class="cls-6" d="M150.78,642.62c-.19.34-.3.7-.52,1a4.83,4.83,0,0,1-.78.85c-.06,0,0,.15.09.1a3.05,3.05,0,0,0,1.22-2Z"/><path class="cls-6" d="M136.43,636.34a.52.52,0,0,0,.47.75,1,1,0,0,0,.89-.76.86.86,0,0,0-.4-1.06.53.53,0,0,0-.78.31.22.22,0,0,0,.31.24c.73-.41,0,1.1-.23.57,0-.09-.2-.17-.26,0Z"/><path class="cls-6" d="M138.29,631.11a1.14,1.14,0,0,0,.78,1,1,1,0,0,0,1.13-.51c.34-.75-.75-1.66-1.26-.92-.1.14.07.32.22.28.33-.09.89.17.39.54s-.79,0-.91-.44c0-.18-.38-.18-.35,0Z"/><path class="cls-6" d="M142.9,634.19c0,.52.72.61,1,.37.14-.11,0-.29-.17-.24-.31.12-.49-.05-.72-.2a.1.1,0,0,0-.16.07Z"/><path class="cls-6" d="M143.68,633.54h-.43c-.09,0-.07.15,0,.15a3.23,3.23,0,0,0,.44,0c.09,0,.07-.16,0-.16Z"/><path class="cls-6" d="M146.41,632.61c1-.66-.68-2.27-1.36-1.06-.14.26.17.51.4.44s.42-.14.63,0,.19.31.19.54a.09.09,0,0,0,.14.08Z"/><path class="cls-6" d="M140.1,634.27c-.59.78.67,1.88,1.32,1.1a.2.2,0,0,0-.19-.33c-.55.13-.86-.09-.81-.67,0-.19-.23-.22-.32-.1Z"/><path class="cls-6" d="M142.05,623.9a1.23,1.23,0,0,0,.5,1.24.89.89,0,0,0,1.19-.15c.61-.81-.73-1.68-1-.92a.19.19,0,0,0,.18.23c.18,0,.51.18.07.3s-.51-.43-.58-.69-.34-.21-.38,0Z"/><path class="cls-6" d="M145.43,624.24c.31.25.91.62,1.21.13s-.43-1-.82-1.1a.15.15,0,1,0-.08.29l.32.08c.23,0,.27.17.1.44q.1.66-.42.24l-.24-.18a.06.06,0,0,0-.07.1Z"/><path class="cls-6" d="M139.76,618.3c-.32.62.4,1.42,1,.87s-.15-1.42-.72-1.61a.07.07,0,0,0-.08.12c.11.12.24.21.36.32a.77.77,0,0,1,.27.39c.05.42-.09.46-.42.13.12-.24-.26-.46-.39-.22Z"/><path class="cls-6" d="M136.27,624.47c.07-.8-.85-.67-1.07-.06a.91.91,0,0,0,1.34,1.07c.23-.13.05-.43-.18-.4-.38,0-.55-.14-.5-.55.08-.17.15-.19.22-.07a.1.1,0,0,0,.19,0Z"/><path class="cls-6" d="M253.5,631.21a5.21,5.21,0,0,1,.87-2.34.13.13,0,0,0-.19-.16,2.5,2.5,0,0,0-.83,2.5.08.08,0,0,0,.15,0Z"/><path class="cls-6" d="M255.45,627.79c.38-.09,1-.3,1.34-.11.65.34.83,1.2.94,1.85a11.82,11.82,0,0,0,.25,2.24c.08.2.4.24.45,0a5.58,5.58,0,0,0-.89-3.58c-.52-.86-1.24-.88-2.12-.49,0,0,0,.1,0,.09Z"/><path class="cls-6" d="M254.42,632.38h.08s0,0,0,0h-.09s0,0,0,0Z"/><path class="cls-6" d="M253.52,631.88a4.92,4.92,0,0,0,3.88.38.22.22,0,0,0-.07-.44c-.6,0-1.18.06-1.78.06a16.14,16.14,0,0,1-2-.24.13.13,0,0,0-.07.24Z"/><path class="cls-6" d="M252,630.9a2.58,2.58,0,0,0-1.86.68.08.08,0,0,0,.09.14l.9-.39c.29-.12.61-.18.9-.32,0,0,0-.1,0-.11Z"/><path class="cls-6" d="M251.58,632.64l1,.17s0,0,0,0l-1-.17s0,0,0,0Z"/><path class="cls-6" d="M250.74,632.46a8.85,8.85,0,0,0,3.43.89c.2,0,.18-.27,0-.3-.61-.1-1.23-.18-1.83-.3s-1.05-.28-1.58-.34c0,0,0,0,0,.05Z"/><path class="cls-6" d="M260.38,631.58a.55.55,0,0,1,.1,1.07,3.27,3.27,0,0,0-.66.3.19.19,0,0,0,.14.34c.56-.13,1.26-.31,1.33-1a.87.87,0,0,0-.87-1c-.14,0-.19.21,0,.25Z"/><path class="cls-6" d="M253.06,634.43a6.18,6.18,0,0,0,4.4,0c.11,0,0-.18-.06-.17-1.46.16-2.89-.1-4.33,0-.1,0-.07.13,0,.17Z"/><path class="cls-6" d="M252.7,626.05a.39.39,0,0,0-.45.48.69.69,0,0,0,.83.48.67.67,0,0,0,.61-.62.45.45,0,0,0-.44-.48c-.09,0-.09.12,0,.14q.25.39,0,.45a.26.26,0,0,1-.3,0c-.23-.09-.19-.06-.12-.24a.16.16,0,0,0-.1-.19Z"/><path class="cls-6" d="M256.29,623.79a.69.69,0,1,0,.39-.33c-.13,0-.06.23.05.24.51.47.47.64-.1.5a.37.37,0,0,1-.08-.33c0-.12-.2-.21-.26-.08Z"/><path class="cls-6" d="M252.68,620.36a.61.61,0,0,0,1-.35.45.45,0,0,0-.78-.36c-.06.06,0,.14.1.12.05.46-.05.61-.28.47s-.13.07-.07.12Z"/><path class="cls-6" d="M258.18,617.31a.52.52,0,0,0-.53.46.77.77,0,0,0,.5.81,1.06,1.06,0,0,0,1.17-.06.72.72,0,0,0,.14-.88.12.12,0,1,0-.22.11c.3.71-.74.61-1,.49s-.42-.59,0-.75a.09.09,0,0,0,0-.18Z"/><path class="cls-6" d="M254.67,614.75a.6.6,0,0,0,.71.79.62.62,0,0,0,.1-1.11.14.14,0,0,0-.18.22c.44.56-.63.83-.52.13,0-.06-.09-.09-.11,0Z"/><path class="cls-6" d="M259.62,626.57a1.1,1.1,0,0,0,1.74.27c.45-.59-.31-1.13-.86-1.12-.16,0-.21.25,0,.28a1.58,1.58,0,0,1,.36.09c.31.16.45.6.07.79a1.13,1.13,0,0,1-1.23-.34s-.06,0,0,0Z"/><path class="cls-6" d="M250.9,611c-.22.6.73,1,1.14.57s-.19-1.14-.58-.7c-.08.09,0,.28.12.23-.32.17-.52.13-.6-.1a0,0,0,0,0-.08,0Z"/><path class="cls-6" d="M91.41,554.86c-.13-1.73,1.39-4.18,3.35-3.94s2.79,2,3.35,3.58c.08.22.42.16.36-.08-.43-1.9-2.38-4.28-4.53-4.09s-3.29,2.78-3,4.59c0,.23.45.2.43-.06Z"/><path class="cls-6" d="M89.21,554.22c-.46.08-1.67.58-1.43,1.24.12.31.59.38.86.47a8.3,8.3,0,0,0,1.61.42.16.16,0,0,0,.09-.3,8.06,8.06,0,0,0-1.5-.59l-.37-.12c-.35-.12-.19,0-.12-.15a1.64,1.64,0,0,1,.94-.67.16.16,0,0,0-.08-.3Z"/><path class="cls-6" d="M92.27,556.2c1.08-.14,2.16-.26,3.24-.44a.05.05,0,1,0,0-.1c-1.09.1-2.17.25-3.26.38-.1,0-.06.17,0,.16Z"/><path class="cls-6" d="M100.43,554.24a1.86,1.86,0,0,1,.16,1c-.14.53-.71.58-1.16.62-.65.06-1.3.13-2,.22-.11,0-.07.17,0,.17.58,0,1.17-.07,1.75-.13a2,2,0,0,0,1.17-.31c.48-.42.25-1.14,0-1.64,0,0-.08,0-.06,0Z"/><path class="cls-6" d="M90.65,548a1.45,1.45,0,0,0,1.2.21,0,0,0,0,0,0-.06,2,2,0,0,1-1.16-.21s-.06,0,0,.06Z"/><path class="cls-6" d="M91.85,547.18a1.35,1.35,0,0,0-1.13-.27c-.13,0-.08.23,0,.2a1.16,1.16,0,0,1,1,.13s.09,0,0-.06Z"/><path class="cls-6" d="M95,544.51c-.45,1.09,1.36,1.53,1.82.57s-.91-2-1.53-1.09c-.12.17.12.35.28.27a.8.8,0,0,1,.54-.14.51.51,0,0,1,.32.7c-.2.53-1.29.5-1.09-.21.06-.21-.26-.3-.34-.1Z"/><path class="cls-6" d="M91.33,541.81a.78.78,0,1,0,.67,1.4c.94-.46.23-2-.71-1.71-.12,0-.17.22,0,.28s.56.19.64.48,0,.34-.19.43-.24.1-.29-.11-.16-.32.1-.46a.18.18,0,0,0-.18-.31Z"/><path class="cls-6" d="M88.63,557.51a9,9,0,0,0,5.49.6c.2-.05.11-.3-.07-.29a11.41,11.41,0,0,1-5.34-.61c-.19-.07-.27.22-.08.3Z"/><path class="cls-6" d="M97.47,549.15c.34.24,1.39,1,1.69.37s-.45-1.21-1-1.21a.13.13,0,0,0,0,.26,1.91,1.91,0,0,1,.41.11,1,1,0,0,1,.4.29c.24.24.2.4-.13.47s-.34.16-.65,0a3.11,3.11,0,0,1-.63-.38s-.11,0-.06.08Z"/><path class="cls-6" d="M87.9,544.45c-.85.45.08,1.61.63.9.09-.1,0-.26-.17-.23a.31.31,0,0,1-.13,0c-.15,0-.19-.09-.13-.36.22-.13,0-.45-.2-.34Z"/><path class="cls-4" d="M74.37,520.33c.84.56,2.31,1.36,3.22.46a.83.83,0,0,0,0-1.15,1.16,1.16,0,0,0-1.6-.08c-.14.11,0,.37.15.35s1.47-.17,1,.57a1.18,1.18,0,0,1-.84.28,3.83,3.83,0,0,1-1.78-.67.14.14,0,1,0-.15.24Z"/><path class="cls-7" d="M85.92,515.09c-.52,1.34,1.49,2,2.12.8a1.46,1.46,0,0,0-.43-1.78,1.28,1.28,0,0,0-1.71,0,.28.28,0,0,0,.29.44,1.1,1.1,0,0,1,.92,0,.88.88,0,0,1,.42.9c-.17.87-1.52.69-1.27-.24a.18.18,0,0,0-.34-.1Z"/><path class="cls-4" d="M84.67,500a1,1,0,0,0,1.45,1.34,1,1,0,0,0,.38-1.23c-.18-.39-.76-.83-1.19-.54a.17.17,0,0,0,0,.31c.21.08.44.07.61.26a.55.55,0,0,1-.06.83c-.62.54-1.31-.24-1-.89.06-.13-.16-.21-.22-.08Z"/><path class="cls-8" d="M99.88,494.23c.4,1.32,2.25,1.62,3.28.93.39-.27.89-.8.57-1.3a2,2,0,0,0-1.7-.56.23.23,0,0,0,0,.46c.31.06.83.05,1.06.27.38.36-.41.8-.73.88-1,.26-1.5-.18-2.15-.82-.11-.11-.34,0-.29.14Z"/><path class="cls-8" d="M106,482.33a1.32,1.32,0,0,0,0,1.38.85.85,0,0,0,1.24-.07c.67-.77-.28-2.5-1.27-1.86a.17.17,0,0,0,.09.32.77.77,0,0,1,.78,1c-.11.3-.42.5-.62.11-.12-.21,0-.55.07-.77a.17.17,0,0,0-.33-.1Z"/><path class="cls-8" d="M113.83,491.55a1.7,1.7,0,0,0,.54,1.85,1.43,1.43,0,0,0,1.9-.11,1.25,1.25,0,0,0,0-1.72,1.08,1.08,0,0,0-1.65.13c-.19.3.25.53.48.41.69-.37,1,.57.33.83s-1.14-.69-1-1.26a.27.27,0,0,0-.52-.13Z"/><path class="cls-7" d="M110.28,502.24c-.23.7-.42,1.57.23,2.1a1.36,1.36,0,0,0,1.9-.36,1.09,1.09,0,0,0-.16-1.6.79.79,0,0,0-1.26.34c-.06.26.27.38.45.24a.3.3,0,0,1,.5.15c.06.26-.27.56-.48.66-.89.4-.69-.87-.57-1.32s-.5-.54-.61-.21Z"/><path class="cls-7" d="M97.28,505.36a1,1,0,0,0,1,1.58c.35-.14.65-.63.32-.95a.39.39,0,0,0-.65.12c0,.14.14.21.22.11-.14.18-.27.31-.53.17a.49.49,0,0,1-.1-.75c.15-.19-.1-.45-.27-.28Z"/><path class="cls-7" d="M101.19,514.67a1.54,1.54,0,0,0-.35,2.67c.93.64,2.43-.19,1.92-1.35a.18.18,0,0,0-.33.07c-.06.7-.8,1.27-1.41.69a1.13,1.13,0,0,1,.36-1.76c.21-.12,0-.42-.19-.32Z"/><path class="cls-7" d="M110.78,513.11c-.8,1.46.81,2.84,2.24,2.38.61-.2,1.32-.75,1.28-1.47s-.88-1-1.51-1c-.11,0-.1.17,0,.19.45.13,1.53.2,1.16,1.07a1.89,1.89,0,0,1-1.22.83,1.4,1.4,0,0,1-1.72-1.88c.07-.14-.14-.29-.22-.14Z"/><path class="cls-7" d="M132.26,505a2,2,0,0,0,.9,1.18.85.85,0,0,0,1.1-.3c.5-1-1.24-1.59-1.34-.63a.17.17,0,0,0,.21.16c.17-.05.7-.39.76,0s-.31.59-.66.49-.65-.61-.83-1a.08.08,0,0,0-.14.06Z"/><path class="cls-4" d="M126.17,497.49a.9.9,0,0,0,.33,1.16,1.26,1.26,0,0,0,1.48-.2c.37-.32.73-.9.44-1.38a.58.58,0,0,0-1-.11c-.11.15.09.28.22.23.32-.11.42.27.33.52a1.31,1.31,0,0,1-.33.44,1,1,0,0,1-.93.27.63.63,0,0,1-.38-.83c0-.11-.14-.21-.19-.1Z"/><path class="cls-8" d="M125,489.9a2.74,2.74,0,0,0,1.3,1.28,1.27,1.27,0,0,0,1.39-.28,1,1,0,0,0,.09-1.19,2.16,2.16,0,0,0-1.75-.59c-.15,0-.13.25,0,.28.37.09.75.09,1.12.2a.69.69,0,0,1,.39,1.12c-.78,1-2-.23-2.37-.9-.06-.1-.23,0-.17.08Z"/><path class="cls-8" d="M121.69,482.54c.41.78.93,1.66,1.88,1.82a1.42,1.42,0,0,0,1.52-.79,1.72,1.72,0,0,0-2.17-2.28c-.17.07-.07.34.1.34a1.92,1.92,0,0,1,1.43.36,1.16,1.16,0,0,1,.27,1.39,1.13,1.13,0,0,1-1.73.46,3.7,3.7,0,0,1-1.14-1.37c-.06-.1-.22,0-.16.07Z"/><path class="cls-8" d="M148.61,492.5a2.1,2.1,0,0,0-.93-2.18,2.16,2.16,0,0,0-2.29.15,2.34,2.34,0,0,0,.7,4,.22.22,0,0,0,.21-.37c-.77-.7-1.36-1.85-.57-2.78a1.48,1.48,0,0,1,2.54,1.13c0,.2.32.23.34,0Z"/><path class="cls-8" d="M160.5,489.4c0-1.76-1.83-3.12-3.38-1.91a1.72,1.72,0,0,0-.58,2,1.45,1.45,0,0,0,1.58,1c.21,0,.15-.29,0-.36-1-.44-1.58-1.75-.33-2.38s2.33.48,2.51,1.62c0,.11.21.11.21,0Z"/><path class="cls-9" d="M148.25,472.35a1.1,1.1,0,0,0,.21,1.55,1.71,1.71,0,0,0,2.3-2.4,2.21,2.21,0,0,0-2.13-.62.16.16,0,0,0,0,.31c.86.18,2.27.28,1.86,1.56a1.43,1.43,0,0,1-1.35,1,.85.85,0,0,1-.74-1.31c.07-.09-.08-.19-.15-.1Z"/><path class="cls-9" d="M139.64,466.4a2.77,2.77,0,0,0-.56,2.53,1.35,1.35,0,0,0,1.71.72c1.71-.59.9-2.92-.32-3.54-.1-.05-.15.1-.08.16a2.76,2.76,0,0,1,1,1.26,1.37,1.37,0,0,1-.6,1.59,1,1,0,0,1-1.44-.9,3.13,3.13,0,0,1,.61-1.62c.12-.2-.21-.4-.33-.2Z"/><path class="cls-9" d="M174.66,471.68c-.83,0-1.86.23-2,1.19s.7,1.39,1.42,1.47a1.32,1.32,0,0,0,1.52-1.28,1,1,0,0,0-1.27-.9c-.11,0,0,.22.06.19a.66.66,0,0,1,.65,1.11,1.15,1.15,0,0,1-1.29.25c-.44-.18-.72-.57-.47-1a1.52,1.52,0,0,1,1.42-.59c.28,0,.26-.42,0-.42Z"/><path class="cls-8" d="M177.16,482.31a1.39,1.39,0,0,0-2-.19,1.82,1.82,0,0,0-.34,2.31,1.45,1.45,0,0,0,1.9.65,1.22,1.22,0,0,0,.48-1.73c-.05-.07-.19,0-.16.07a.93.93,0,0,1-1.69.77,1.33,1.33,0,0,1,0-1.5,1,1,0,0,1,1.57-.15.17.17,0,0,0,.24-.23Z"/><path class="cls-8" d="M174.92,489.07a2.19,2.19,0,0,0,.13,2.08,1.24,1.24,0,0,0,1.51.4,1.06,1.06,0,0,0,.31-1.41,1.58,1.58,0,0,0-1.61-.72c-.17,0-.13.27,0,.28a1.56,1.56,0,0,1,1.19.4.69.69,0,0,1-.5,1.18c-1.14-.09-.89-1.41-.84-2.16a.11.11,0,0,0-.22-.05Z"/><path class="cls-4" d="M170.79,498.79c-.54,1,.82,2,1.48,1s-.81-2-1.34-1.1a.17.17,0,0,0,.18.24.85.85,0,0,1,.54-.09.41.41,0,0,1,.27.58.44.44,0,1,1-.78-.42c.11-.22-.23-.43-.35-.21Z"/><path class="cls-7" d="M160.15,501.91a1.26,1.26,0,0,0-.91,1.52,1.19,1.19,0,0,0,1.62.75,1.15,1.15,0,0,0,.47-1.54,1,1,0,0,0-1.49-.33c-.15.13,0,.4.21.34a.79.79,0,0,1,.86.08.64.64,0,0,1-.31,1,.77.77,0,0,1-.95-.66.92.92,0,0,1,.63-.88c.19-.07.05-.38-.13-.32Z"/><path class="cls-7" d="M150.67,504.81a1.25,1.25,0,0,0-.64,1.71,1.29,1.29,0,0,0,1.87.44,1.23,1.23,0,0,0,.09-1.81c-.51-.49-1.7-.25-1.26.59.08.15.37.15.39,0s.35-.26.48-.07a.64.64,0,0,1,.08.43.56.56,0,0,1-.58.5.67.67,0,0,1-.69-.67,1.06,1.06,0,0,1,.43-.79.18.18,0,0,0-.17-.29Z"/><path class="cls-7" d="M139.21,507.32a1.6,1.6,0,0,0,.9,3.07,1.52,1.52,0,0,0,1.08-1.87c-.15-.72-1-1.63-1.8-1.16-.18.11-.07.34.11.37a1.67,1.67,0,0,1,.85.18,1,1,0,0,1,.41.78,1,1,0,0,1-.94,1.1,1.06,1.06,0,0,1-.42-2.06c.24-.1,0-.5-.19-.41Z"/><path class="cls-7" d="M123.66,509.36a1.21,1.21,0,0,0,.13,1.9,1.65,1.65,0,0,0,2.21-.34,1.25,1.25,0,0,0-.55-1.85,1.17,1.17,0,0,0-1.59,1.06c0,.24.41.38.51.12s.39-.76.81-.61a.59.59,0,0,1,.06,1c-.75.56-1.92-.2-1.32-1.1.1-.16-.13-.32-.26-.21Z"/><path class="cls-7" d="M120.62,514.84a1.86,1.86,0,0,0,1.37,2.92,1,1,0,0,0,.87-1.51c-.21-.45-1-1.15-1.43-.57a.13.13,0,0,0,.14.19.73.73,0,0,1,.85.38.7.7,0,0,1,0,.86c-.37.36-1,.11-1.31-.2a1.58,1.58,0,0,1-.26-1.94.12.12,0,0,0-.2-.13Z"/><path class="cls-7" d="M130.86,514.14a2.33,2.33,0,0,0,.28,2.61,1.57,1.57,0,0,0,2.2,0,1.38,1.38,0,0,0-.39-2c-.61-.33-1.79-.06-1.8.76a.2.2,0,0,0,.33.14c.34-.29.77-.74,1.25-.37a.76.76,0,0,1,0,1.2,1.08,1.08,0,0,1-1.26-.2,1.8,1.8,0,0,1-.17-1.92c.1-.25-.28-.47-.39-.22Z"/><path class="cls-4" d="M157.87,516.61a3.08,3.08,0,0,0,1.29,2.69,1.48,1.48,0,0,0,2.11-.55,1.55,1.55,0,0,0-.48-1.93,1.6,1.6,0,0,0-2.22.4c-.08.17.11.41.29.29.47-.3.91-.62,1.5-.42a1.09,1.09,0,0,1,.44,1.66,1.23,1.23,0,0,1-1.85,0,3.12,3.12,0,0,1-.72-2.08c0-.21-.37-.24-.36,0Z"/><path class="cls-9" d="M161.7,470.68a2.54,2.54,0,0,0,.28,2.12,1.26,1.26,0,0,0,1.36.5.78.78,0,0,0,.24-1.24,1.43,1.43,0,0,0-1.66-.56c-.18.08-.07.34.1.35a1.59,1.59,0,0,1,1,.27.65.65,0,0,1,.26.43c0,.38-.37.41-.63.29-.77-.36-.72-1.36-.59-2,0-.23-.33-.35-.38-.11Z"/><path class="cls-9" d="M167.53,463.17a1.7,1.7,0,0,0-.59,2.38,1.45,1.45,0,0,0,2.3.17,1.42,1.42,0,0,0-.58-2.16,1.78,1.78,0,0,0-1.22-.3.51.51,0,0,0-.45.67c0,.16.33.23.41.05.19-.46,2.36.62,1.12,1.46a.82.82,0,0,1-1.15-.39,1.15,1.15,0,0,1,.49-1.4.29.29,0,0,0-.33-.48Z"/><path class="cls-9" d="M177.7,462.56a2.37,2.37,0,0,0-.71,2.37c.21.79,1,1.64,1.84,1.18a1.26,1.26,0,0,0,.38-1.94c-.43-.49-1.52-.82-1.94-.17a.26.26,0,0,0,.17.36c.35.09.76-.08,1.08.17.51.39,0,1.29-.56.76a1.73,1.73,0,0,1,.2-2.33c.27-.28-.19-.65-.46-.4Z"/><path class="cls-9" d="M185,469.45a2.16,2.16,0,0,0,.18,2.06,1.73,1.73,0,0,0,1.69.69c1.82-.39-.08-2.75-.78-2a.22.22,0,0,0,.1.36,1.17,1.17,0,0,1,.8.6c.24.74-.82.54-1.09.4a1.64,1.64,0,0,1-.61-2,.15.15,0,0,0-.29-.1Z"/><path class="cls-9" d="M119.36,466.69a2.07,2.07,0,0,0-2.27,1.06,1.83,1.83,0,0,0,.94,2.35,1.6,1.6,0,0,0,2.11-1.11c.22-.86-.6-2.08-1.56-1.84a.23.23,0,0,0-.13.35c.36.44,1.18.53,1,1.28a.89.89,0,0,1-1.36.56,1.18,1.18,0,0,1-.36-1.45,1.54,1.54,0,0,1,1.59-.77c.25,0,.29-.39,0-.43Z"/><path class="cls-9" d="M107.52,466.65a2.36,2.36,0,0,0-.27,2.3,1.11,1.11,0,1,0,1.8-1.23c-.38-.39-1.12-.48-1.32.12-.07.2.23.3.34.14.37-.51.92.22.85.59a.67.67,0,0,1-1.08.36c-.65-.52-.27-1.48,0-2.07.11-.23-.24-.43-.36-.21Z"/><path class="cls-9" d="M98.38,469.36a3.26,3.26,0,0,0,.19,2.4,1.36,1.36,0,0,0,1.73.58,1,1,0,1,0-1.19-1.62.22.22,0,0,0,.32.31c.25-.19.64-.36.9,0a.54.54,0,0,1-.2.76.81.81,0,0,1-1-.18,2.45,2.45,0,0,1-.29-2.13c0-.29-.42-.42-.48-.12Z"/><path class="cls-4" d="M139.26,481.68c.25-.56-.48-1-1-.72a1.44,1.44,0,0,0-.16,2.06,1.72,1.72,0,0,0,2.15-.5c.24-.39.21-1.13-.38-1.13-.13,0-.2.18-.08.25.38.19.22.6-.12.72a2.3,2.3,0,0,1-.74,0c-.28,0-.33,0-.33-.31a1.32,1.32,0,0,1,0-.34.27.27,0,0,1,0-.14c0-.09.09-.11.19-.06s.25.35.34.15Z"/><path class="cls-8" d="M187.72,485.58a1.84,1.84,0,0,0-1,2.12,1.09,1.09,0,0,0,1.79.48c1.49-1.35-1.26-3.59-2-2.09a.25.25,0,0,0,.34.32.87.87,0,0,1,1,0c.37.3.55,1.16-.06,1.31s-.63-.57-.49-.94a5.57,5.57,0,0,1,.66-.95c.13-.19-.14-.39-.31-.3Z"/><path class="cls-8" d="M203.75,482.45c-.56.66-1.22,1.71-.59,2.53a1.23,1.23,0,1,0,1.73-1.71,1.17,1.17,0,0,0-1.77.47.19.19,0,0,0,.3.18,1,1,0,0,1,1.15-.33.75.75,0,0,1-.07,1.28.73.73,0,0,1-1-.67,2.32,2.32,0,0,1,.68-1.39c.21-.25-.18-.6-.39-.36Z"/><path class="cls-8" d="M201.54,492.06a1.36,1.36,0,0,0,.13,1.75,1,1,0,0,0,1.56-.06.92.92,0,0,0-.23-1.36.82.82,0,0,0-1.2.48.23.23,0,0,0,.42.16c.14-.23.45-.34.61-.09a.44.44,0,0,1-.36.65c-.76.08-.82-.83-.54-1.31.14-.24-.25-.46-.39-.22Z"/><path class="cls-8" d="M193.09,493.44c-.62.76-1.23,1.8-.62,2.75a1.42,1.42,0,0,0,2.36-.06,1.56,1.56,0,0,0-.42-2.31c-.73-.33-1.79.24-1.46,1.1.08.22.46.27.51,0a.43.43,0,0,1,.81-.15,1,1,0,0,1-.31,1.05c-.48.4-1,.06-1.05-.51a2.26,2.26,0,0,1,.61-1.49c.2-.29-.2-.66-.43-.38Z"/><path class="cls-8" d="M182,494.74a2.17,2.17,0,0,0-.56,2.14,1.43,1.43,0,0,0,1.72.94,1.05,1.05,0,0,0,.64-1.54.94.94,0,0,0-1.33-.28c-.08.07,0,.2.11.16.42-.21,1,.14.81.64a.79.79,0,0,1-1,.38c-.91-.37-.57-1.57-.11-2.13.17-.21-.13-.51-.31-.31Z"/><path class="cls-7" d="M177.93,503.07c-.18.94-.38,2.16.43,2.88a1.37,1.37,0,0,0,2.08-.1,1.7,1.7,0,0,0-.54-2.26,1,1,0,0,0-1.46,1c.06.29.5.21.5-.07a.53.53,0,0,1,.61-.48c.3.07.46.43.5.7.08.51-.16,1.1-.76,1-1.19-.16-1-1.69-.85-2.53.06-.32-.45-.45-.51-.12Z"/><path class="cls-7" d="M168.83,508.36c.28-.64-.33-1.32-.89-1.56a2.12,2.12,0,0,0-2.25.52,1.56,1.56,0,0,0-.5,1.89,2.22,2.22,0,0,0,1.81.94c.35,0,.57-.46.19-.6-.77-.3-1.83-.68-.91-1.62a1.47,1.47,0,0,1,1.31-.48c.5.12.58.52.79.91a.27.27,0,0,0,.45,0Z"/><path class="cls-7" d="M188.15,509.23c-.73-.06-1.83.12-1.81,1.08a.83.83,0,0,0,1.39.6c.58-.65-.4-1.61-1-1s.44,1.54.95.78c.13-.2-.12-.5-.33-.46-.3.29-.41.24-.32-.15a.51.51,0,0,1,.3-.26,1.61,1.61,0,0,1,.87-.12c.33,0,.27-.46,0-.48Z"/><path class="cls-7" d="M198.66,505c-.71.42-1.69,1.71-1,2.52a1.61,1.61,0,0,0,2.36.11,1.27,1.27,0,0,0-.44-2,1,1,0,0,0-1.37,1.26.31.31,0,0,0,.6-.11c0-.44.6-.7.77-.22a.68.68,0,0,1-.66.87,1,1,0,0,1-.69-.2c-.32-.27-.17-.58,0-.88s.54-.7.77-1.08a.21.21,0,0,0-.28-.28Z"/><path class="cls-7" d="M176.54,512.26c-.81-.09-1.91.15-2.15,1.07a1.25,1.25,0,0,0,1.11,1.6c.82,0,1.89-1,1.37-1.87s-1.74-.17-1.22.59c.13.21.58.15.52-.15s.07-.22.14,0a.48.48,0,0,1-.17.37,1.83,1.83,0,0,1-.42.31c-.45.23-.78-.06-.81-.54,0-.82,1-1,1.64-1,.25,0,.23-.35,0-.37Z"/><path class="cls-4" d="M166.41,517.2c-.42,1-.71,2.56,0,3.49s2,.35,2.63-.39a1.5,1.5,0,0,0-.36-2.38,1.37,1.37,0,0,0-2,1.39c.06.27.44.21.51,0,.16-.52.67-1.22,1.27-.74s.1,1.18-.37,1.54c-1.79,1.39-1.26-1.88-1-2.6.12-.42-.49-.73-.68-.3Z"/><path class="cls-4" d="M145,518a1.49,1.49,0,0,0,.13,2.27c.53.39,2.15.45,1.88-.59a.21.21,0,0,0-.37-.06.89.89,0,0,1-1.48.14,1.16,1.16,0,0,1,0-1.57c.1-.12-.06-.31-.18-.19Z"/><path class="cls-4" d="M140.85,517.66c-1.31.24-3.55,2.08-2.1,3.48a1.08,1.08,0,0,0,1.64-.13.76.76,0,0,0-.6-1.22.22.22,0,0,0-.15.37c.14.12.23.46.06.6-.33.25-.69-.32-.75-.56a1.59,1.59,0,0,1,.44-1.14,2.76,2.76,0,0,1,1.6-.95c.3-.07.15-.5-.14-.45Z"/><path class="cls-4" d="M163.41,526.88a1.81,1.81,0,0,0-2.09,1.43,1.49,1.49,0,0,0,1.47,1.49c.74.08,1.85-.21,2-1.07.1-.6-.65-1.45-1.2-.91a.18.18,0,0,0,.13.31c.49,0,.61.45.25.74a1.58,1.58,0,0,1-.47.23,1.69,1.69,0,0,1-1.13,0,.79.79,0,0,1-.39-1.17,1.54,1.54,0,0,1,1.44-.62c.26,0,.24-.37,0-.39Z"/><path class="cls-4" d="M197.53,515.65c-1,.52-1.91,1.58-1.34,2.74a1.78,1.78,0,0,0,2.76.28,1.68,1.68,0,0,0-.17-2.64c-.93-.62-2.41.13-2.1,1.3.09.33.54.24.62,0,.15-.53.8-1,1.21-.41a1,1,0,0,1-.58,1.47.87.87,0,0,1-1.24-.82,1.82,1.82,0,0,1,1.12-1.46c.29-.16,0-.58-.28-.43Z"/><path class="cls-4" d="M186.87,522.08a1.38,1.38,0,0,0-.11,1.82,1.5,1.5,0,0,0,2,.27,1.24,1.24,0,0,0,.15-2,1.27,1.27,0,0,0-2,.82c0,.22.26.3.42.22.31-.15.58-.59,1-.51.66.15.08.92-.27,1a.77.77,0,0,1-1-.32,1.15,1.15,0,0,1,.08-1.13.18.18,0,0,0-.28-.22Z"/><path class="cls-4" d="M174.88,529.08a1.2,1.2,0,0,0,.06,1.83,1.24,1.24,0,1,0,.6-2.28.91.91,0,0,0-.32,1.75c.25.09.42-.24.29-.43s.17-.72.41-.35a.53.53,0,0,1-.14.62c-.48.44-.93-.47-.62-.86a.2.2,0,0,0-.28-.28Z"/><path class="cls-4" d="M189.6,524.83a1.68,1.68,0,0,0,.78,2.22,1.52,1.52,0,0,0,2-1,1.45,1.45,0,0,0-1.63-1.69c-.82.18-1.47,1.42-.6,1.95a.29.29,0,0,0,.42-.19c0-.27.06-.73.38-.84s.59.4.48.68a.73.73,0,0,1-1,.28,1,1,0,0,1-.37-1.2c.08-.26-.38-.45-.48-.18Z"/><path class="cls-4" d="M122.89,541.26c-.39.68-.68,1.63.13,2.15s1.55-.25,1.92-.89a1.24,1.24,0,0,0-.48-1.79c-.69-.27-1.67.53-1,1.18a.35.35,0,0,0,.53-.11c.07-.15.11-.39.26-.19s-.13.6-.27.75-.46.56-.68.19.08-.75.2-1-.39-.63-.59-.28Z"/><path class="cls-4" d="M123.14,534.45c-.17.79-.19,2.17,1,2.15a1.84,1.84,0,0,0,1.62-2.12,1.44,1.44,0,0,0-2.08-.79.89.89,0,0,0-.35,1.15.72.72,0,0,0,1,.25c.35-.23,0-.71-.33-.61.19-.05.26-.24.51-.19a.69.69,0,0,1,.34.2c.27.31.08.7-.14,1s-.61.63-1,.35-.28-.86-.22-1.26c0-.24-.34-.36-.39-.11Z"/><path class="cls-4" d="M111,524.88c0,.59.06,1.19.14,1.78a.88.88,0,0,0,.58.81c.88.28,1.41-.72,1.43-1.46s-.79-1.52-1.43-.88a.62.62,0,0,0,.73,1,.3.3,0,0,0-.19-.54c.11,0,.13.46.12.54a1.4,1.4,0,0,1-.08.34c-.14.37-.4.58-.56,0a12.07,12.07,0,0,1-.17-1.59c0-.35-.6-.35-.57,0Z"/><path class="cls-4" d="M107.36,530.89c-.06.82,0,1.94,1,2.1.8.12,1.24-.68,1.17-1.38s-.67-1.64-1.48-1.43-.76,1.46.05,1.34c.2,0,.37-.25.22-.45,0,0-.08-.12,0-.13s.26.26.29.3a1.13,1.13,0,0,1,.11.72c-.07.41-.51.39-.73.07a1.75,1.75,0,0,1-.15-1.15c0-.31-.48-.31-.51,0Z"/><path class="cls-4" d="M99.19,524.2a1.82,1.82,0,0,0-1.29,2c.11.75.85,1.69,1.71,1.39s.8-1.56.4-2.15-1.66-.82-1.7.1a.35.35,0,0,0,.52.33c.41-.24.55.07.56.47s0,.66-.42.37c-.8-.63-.25-1.67.49-2,.31-.15,0-.6-.27-.52Z"/><path class="cls-4" d="M86.8,521.18c-.1,1-.58,2.16.14,3.06a1.24,1.24,0,0,0,2,0c1-1.37-1.14-4.49-2.52-3-.13.14,0,.4.21.28,1.3-.85,2.75,1.52,1.71,2.45-.71.63-1.23-.27-1.27-.89a14,14,0,0,1,.21-1.83c0-.26-.45-.33-.48-.06Z"/><path class="cls-4" d="M80.32,526.24c.09.82-.26,2,.65,2.53a1.05,1.05,0,0,0,1.49-.95,2.37,2.37,0,0,0-1.38-2c-.6-.31-1.54,0-1,.77.16.2.48,0,.36-.19s.12-.32.31-.18a1.94,1.94,0,0,1,.29.21,3.16,3.16,0,0,1,.39.43,1.09,1.09,0,0,1,.26,1.19c-.31.57-.83.15-.94-.33a14.15,14.15,0,0,1-.05-1.46c0-.26-.45-.28-.42,0Z"/><path class="cls-4" d="M88.13,530.58c.31.68.37,1.81,1.31,1.94s1.3-.9,1.51-1.51a1.31,1.31,0,0,0-.62-1.67c-.7-.28-1.22.4-1.41,1a.16.16,0,0,0,.29.14c.22-.38.55-1.16,1.14-.72s.17,1.08-.07,1.49-.65,1-1.12.48c-.29-.32-.31-.92-.47-1.3s-.71-.18-.56.17Z"/><path class="cls-4" d="M96.33,533.86c.17.47,0,1,.41,1.36a.78.78,0,0,0,1,.2,2.17,2.17,0,0,0,.72-1.1,1.62,1.62,0,0,0,0-1.26c-.44-.89-1.4-.71-2-.16-.27.24-.62.56-.61,1a.59.59,0,0,0,.75.53c.29,0,.21-.5,0-.54,0,0,.62-.63.7-.67.61-.31.76.37.62.81a2.34,2.34,0,0,1-.23.51l-.14.22c-.16.09-.24,0-.24-.1-.15-.23-.1-.7-.19-1s-.82-.2-.66.23Z"/><path class="cls-4" d="M106.09,519.59c-.34.77-.66,2.39.21,2.94a1.82,1.82,0,0,0,2.34-.8,1.76,1.76,0,0,0-.27-2.32,1.54,1.54,0,0,0-2.09.09.32.32,0,0,0,0,.46,2.17,2.17,0,0,0,.53.26.22.22,0,0,0,.24-.33,2,2,0,0,0-.34-.42l0,.46a.79.79,0,0,1,1.1,0,1.07,1.07,0,0,1-.06,1.36c-.2.26-.81.8-1.15.49s-.16-.8-.14-1.05a5.45,5.45,0,0,1,.18-1c.08-.36-.5-.54-.65-.2Z"/><path class="cls-4" d="M92.4,495.75c.09.79-.31,1.78.33,2.44a1.27,1.27,0,0,0,1.82-.11,1.5,1.5,0,0,0,0-1.95,1.42,1.42,0,0,0-1.93-.24.27.27,0,0,0,.21.44c.42,0,.83-.19,1.18.14a.88.88,0,0,1,0,1.29c-.46.36-.92.11-1-.43s.07-1.06,0-1.59c0-.32-.56-.33-.53,0Z"/><path class="cls-8" d="M93.27,483a2.63,2.63,0,0,0,.73,2.18,1.28,1.28,0,0,0,1.67.07c1.14-1-.06-2.67-1.38-2.39-.31.07-.48.56-.09.68l.4.12c.28.09.45-.3.24-.48l-.27-.24-.18.63a.89.89,0,0,1,1,.43.69.69,0,0,1-.27.84c-.43.22-.87-.2-1-.56a4,4,0,0,1-.24-1.29.26.26,0,0,0-.52,0Z"/><path class="cls-9" d="M104.82,475.47a1.12,1.12,0,0,0,.86,1.41,1.44,1.44,0,0,0,1.61-1.12,1.39,1.39,0,0,0-.9-1.64c-.57-.16-1.48.18-1.36.89a.3.3,0,0,0,.51.18c.14-.14.27-.31.49-.32s.43.26.42.53c0,.58-1,1.06-.92.28,0-.37-.57-.62-.71-.21Z"/><path class="cls-8" d="M115.5,488.09a1.41,1.41,0,0,0,2.31,1.53,1.45,1.45,0,0,0-1.88-2.17c-.27.16-.14.51.08.63a.91.91,0,0,0,.34.14.23.23,0,0,0,.28-.28,1.07,1.07,0,0,0-.13-.31l-.2.46c.68-.32,1.42.31.89,1s-1.39-.1-1.17-.8c.09-.28-.4-.46-.52-.19Z"/><path class="cls-8" d="M113.38,484.53a1.63,1.63,0,0,0,.22,2.15,1.34,1.34,0,0,0,1.89-.64c.34-.58.67-1.61,0-2.1-.38-.28-1.38-.19-1.14.47a.22.22,0,0,0,.31.13c.74-.44.2,1,0,1.29s-.56.53-.89.3-.27-1.08-.23-1.54a.1.1,0,0,0-.18-.06Z"/><path class="cls-8" d="M118.54,480.93a3.48,3.48,0,0,0,.45,2.71c.59.62,1.39.07,1.68-.57a1.56,1.56,0,0,0-.45-2c-.5-.28-1.38-.24-1.47.46,0,.16.17.38.34.25a.68.68,0,0,1,.82-.11c.39.27.23.92,0,1.26s-.38.46-.64.19a2.12,2.12,0,0,1-.25-.81A8.23,8.23,0,0,1,119,481c0-.24-.4-.31-.44-.06Z"/><path class="cls-9" d="M137.62,464.41a1.34,1.34,0,0,0,2.33,1.31,1.68,1.68,0,0,0,0-2,1,1,0,0,0-1.61,0c-.13.22.12.41.32.37.71-.12,1,.47.74,1.1a.68.68,0,1,1-1.23-.53.29.29,0,0,0-.51-.26Z"/><path class="cls-9" d="M141,458.2c-.13.74-.19,1.7.62,2.08s1.45-.39,1.72-1a1.13,1.13,0,0,0-.61-1.58c-.57-.12-1.22.52-.81,1,.1.13.31,0,.32-.12s0-.38.22-.47c.36-.15.58.28.58.54a1.29,1.29,0,0,1-.5.91c-.4.37-1,.42-1.2-.19a2.35,2.35,0,0,1,0-1.15c0-.17-.29-.24-.32-.06Z"/><path class="cls-4" d="M144.17,533a2,2,0,0,0,.68,1.74,1.2,1.2,0,0,0,1.7-.16,1.36,1.36,0,0,0-1.61-2.09c-.19.07,0,.35.13.31a1.19,1.19,0,0,1,1.21.44.84.84,0,0,1-.41,1.2c-1,.42-1.08-.93-1.38-1.46a.18.18,0,0,0-.32,0Z"/><path class="cls-4" d="M163.49,535.48c-.85.52-.26,1.78.37,2.2a1.61,1.61,0,0,0,2.34-.69,1.72,1.72,0,0,0-.72-2.38,1.83,1.83,0,0,0-2.42.62.36.36,0,0,0,.52.43,1.52,1.52,0,0,1,1.4-.41.91.91,0,0,1,.54,1.28.89.89,0,0,1-1.3.54,1.59,1.59,0,0,1-.59-1.49c0-.06-.08-.14-.14-.1Z"/><path class="cls-4" d="M171.4,537a2.77,2.77,0,0,0,4.11,3.49,2.63,2.63,0,0,0,.68-3.55,2.07,2.07,0,0,0-3.15-.28.33.33,0,0,0,.44.48,1.45,1.45,0,0,1,2.37.79,2,2,0,0,1-1.33,2.22,2.27,2.27,0,0,1-2.81-3c.06-.18-.23-.31-.31-.14Z"/><path class="cls-4" d="M154.41,531.34a1.17,1.17,0,0,0,.14,1.46,1.32,1.32,0,0,0,1.54.25,1.51,1.51,0,0,0,.89-1.56c-.1-.52-.77-.89-1.18-.44a.21.21,0,0,0,.21.34c.46-.11.35.57.19.8a1.18,1.18,0,0,1-.63.44.74.74,0,0,1-.81-1.09c.13-.21-.21-.4-.35-.2Z"/><path class="cls-4" d="M150.51,524.22a1.67,1.67,0,0,0,.21,2.07,1.72,1.72,0,0,0,2.32.22,1.76,1.76,0,0,0-1.63-3.08c-.21.08-.08.43.12.41,1.08-.1,2.2,1,1.29,2a1.18,1.18,0,0,1-1.54.23c-.61-.46-.53-1-.46-1.69a.19.19,0,0,0-.31-.14Z"/><path class="cls-4" d="M130,528.36a3.47,3.47,0,0,0,1.5,3,1.72,1.72,0,0,0,2.48-.71,2.62,2.62,0,0,0-1-2.95,1.57,1.57,0,0,0-1.47-.41.89.89,0,0,0-.65,1.06c.08.33.59.44.66,0,.19-.95,1.27,0,1.52.32a1.91,1.91,0,0,1,.49,1,1.16,1.16,0,0,1-1.31,1.33c-1.39-.21-1.51-1.7-1.9-2.75,0-.15-.3-.17-.31,0Z"/><path class="cls-4" d="M133.65,533.84a1.42,1.42,0,0,0-1.21,2,1.84,1.84,0,0,0,2.6.68,2.2,2.2,0,0,0,.8-2.93c-.44-.71-1.85-1.15-2.28-.19-.1.23.15.54.4.43.5-.22,1-.32,1.26.31a1.42,1.42,0,0,1-.54,1.57,1.09,1.09,0,0,1-1.37,0,.81.81,0,0,1,.44-1.41c.3,0,.18-.51-.1-.5Z"/><path class="cls-4" d="M109.73,537.56c-.11,2.47,4,3.58,4.84,1.11a1.87,1.87,0,0,0-1.38-2.22c-.93-.27-2.22.3-1.93,1.4.08.32.57.26.63,0,.17-.85,1.22-.8,1.71-.27.67.72,0,1.55-.78,1.8-1.42.47-2.36-.58-2.74-1.82a.18.18,0,0,0-.35,0Z"/><path class="cls-4" d="M114.47,528.24c1.22,1.7,4.25,1,3.78-1.33a1.84,1.84,0,0,0-2-1.56,1.06,1.06,0,0,0-1,.9.84.84,0,0,0,.89.93.31.31,0,0,0,.1-.59c-.35-.13,0-.43.12-.5a.72.72,0,0,1,.48,0,1.21,1.21,0,0,1,.54.46,1.56,1.56,0,0,1,.16,1.38c-.47,1.25-2.26,1.07-3,.14-.09-.13-.26,0-.17.15Z"/><path class="cls-4" d="M68.66,529.1a1.82,1.82,0,0,0,.61,2.25,1.46,1.46,0,0,0,2-1A2.1,2.1,0,0,0,70,527.88c-.86-.23-1.73.78-1,1.48.22.2.65,0,.51-.33s.31-.39.51-.28a1.23,1.23,0,0,1,.42.65,1.1,1.1,0,0,1-.31,1.28.62.62,0,0,1-1-.39c-.12-.37,0-.76-.11-1.13a.23.23,0,0,0-.41-.06Z"/><path class="cls-4" d="M75.31,531.65a1.69,1.69,0,0,0-.11,2.81,1.74,1.74,0,0,0,2.7-1.15,2.13,2.13,0,0,0-2-2.59c-1,0-1.89,1.39-.92,2.12.21.16.61,0,.48-.29a.64.64,0,0,1,.81-.88,1.3,1.3,0,0,1,.63,1.52.82.82,0,0,1-1.21.56.86.86,0,0,1,.06-1.48c.42-.29-.08-.87-.49-.62Z"/><path class="cls-4" d="M64.53,536.54c-.84-.3-1.46.88-1.34,1.57a1.71,1.71,0,0,0,2.2,1.17,2,2,0,0,0,1.26-2.4.87.87,0,0,0-.89-.67.58.58,0,0,0-.54.79.35.35,0,0,0,.64,0c-.17.29-.09.68-.3,1a1,1,0,0,1-.94.45.81.81,0,0,1-.7-.62c-.08-.56.32-.75.69-1,.11-.09,0-.25-.08-.29Z"/><path class="cls-4" d="M81.39,535.71a2.68,2.68,0,0,0,.25,3.25,1.86,1.86,0,0,0,2.63.09,2.81,2.81,0,0,0,.54-3.12c-.4-.65-1.45-1.11-2.06-.49a.21.21,0,0,0,.21.34,1.17,1.17,0,0,1,1.64.83,2.15,2.15,0,0,1-1,2.16,1.38,1.38,0,0,1-1.79-.77,2.88,2.88,0,0,1,.14-2.1c.09-.31-.37-.43-.53-.19Z"/><path class="cls-4" d="M66.65,535a1.78,1.78,0,0,0,1.27,2.48,2.06,2.06,0,0,0,2.35-2,2.65,2.65,0,0,0-2-2.56,1.35,1.35,0,0,0-1.49.57.87.87,0,0,0,.23,1.24c.18.13.39-.08.34-.26-.29-1.21,1.16-1.07,1.77-.51a1.75,1.75,0,0,1,.46,2,1.51,1.51,0,0,1-1.85.84,1.39,1.39,0,0,1-.7-1.66.21.21,0,0,0-.38-.16Z"/><path class="cls-4" d="M206.91,517.56a1.62,1.62,0,0,0-.37,2.14,2.13,2.13,0,0,0,2.5.76c1-.37,1.33-1.53.35-2.12-.67-.41-2.13-1-2.57,0a.36.36,0,0,0,.37.49,2.1,2.1,0,0,1,1.24.07c.1.05.55.2.57.33s-.43.36-.55.38c-.95.2-2-.83-1.21-1.69.19-.2-.1-.56-.33-.39Z"/><path class="cls-4" d="M199.36,522.23a2.82,2.82,0,0,0,.49,3,2.11,2.11,0,0,0,2.81,0,1.83,1.83,0,0,0,.11-2.6c-.58-.55-2.16-.72-2.32.32a.38.38,0,0,0,.51.4c.43-.16,1-.56,1.32,0a1.07,1.07,0,0,1-.6,1.46,1.22,1.22,0,0,1-1.51-.49,2.3,2.3,0,0,1-.11-1.82c.12-.44-.55-.75-.7-.3Z"/><path class="cls-7" d="M208.9,504.63c.69-.73-.59-1.56-1.3-1.14a2.3,2.3,0,0,0-.44,3.06c.16.24.6.14.56-.17a4.2,4.2,0,0,1,0-1.54,1.16,1.16,0,0,1,.27-.62c.22-.21.61-.23.53.19a.25.25,0,0,0,.41.22Z"/><path class="cls-4" d="M210.23,497a1.35,1.35,0,0,0-2.24,1.25,1.49,1.49,0,0,0,2.81.39c.06-.17-.17-.32-.31-.24-.53.33-1.45.57-1.67-.25a.67.67,0,0,1,1-.73c.31.22.68-.16.39-.42Z"/><path class="cls-7" d="M214.18,505a1.32,1.32,0,0,0-1.83-.75,1.53,1.53,0,0,0-.55,2.08A1.65,1.65,0,0,0,214,507c.83-.55.09-1.41-.61-1.59a.19.19,0,0,0-.14.35c.22.14.46.18.36.47s-.19.2-.42.14a1,1,0,0,1-.7-.62c-.26-.82.86-1.43,1.28-.59a.24.24,0,0,0,.44-.18Z"/><path class="cls-7" d="M211.17,512.85a.15.15,0,1,0,0-.3.15.15,0,1,0,0,.3Z"/><path class="cls-7" d="M210.82,512.94a2,2,0,0,0,4-.18,2.12,2.12,0,0,0-2-2c-.94-.05-2.25.9-1.59,1.92.23.34.88.37.9-.14.06-1.14,1.73-.58,1.52.41-.24,1.2-1.76.88-1.9-.19-.08-.58-1-.44-.92.14Z"/><path class="cls-4" d="M217.75,518l0,.17c0,.07.12.06.12,0l0-.17c0-.11-.17-.12-.16,0Z"/><path class="cls-4" d="M220,518.07c.39-.57-.45-1.43-1-1.37a.24.24,0,0,0,0,.48,1.2,1.2,0,0,1,.69.32c.14.17.15.37.26.55a.07.07,0,0,0,.11,0Z"/><path class="cls-4" d="M218.27,516.68a1.25,1.25,0,0,0-.82,1.46,1.12,1.12,0,0,0,1.5.75c.18-.07.11-.37-.07-.39-.72-.11-1.21-1-.39-1.37.26-.13,0-.55-.22-.45Z"/><path class="cls-4" d="M224.16,517.07c.14.61.73,1,.91,1.59a.78.78,0,0,1-.19.86c-.32.2-.84-.09-1.16-.17a.17.17,0,0,0-.17.27c.57.58,1.74.8,2.06-.15s-.59-1.89-1.13-2.57c-.12-.15-.36,0-.32.17Z"/><path class="cls-4" d="M223.9,517.1a1.46,1.46,0,0,0-.39,1.84c.07.14.32.08.27-.09a1.42,1.42,0,0,1,.36-1.5c.16-.15-.08-.39-.24-.25Z"/><path class="cls-8" d="M148.56,480.68c-.86.51-1.75,1.41-1.44,2.5s1.45,1.06,2.23.49a1.65,1.65,0,0,0,.59-2.26,1.15,1.15,0,0,0-1.86-.09c-.14.21.19.44.36.27a.9.9,0,0,1,1.31.05c.61.67-.13,1.63-.8,1.88a1,1,0,0,1-1.39-1.09,3,3,0,0,1,1.18-1.5c.13-.11,0-.34-.18-.25Z"/><path class="cls-4" d="M152.7,479.41a1.33,1.33,0,0,0,.21,2,1.22,1.22,0,0,0,1.76-.72c.17-.55-.12-1.55-.87-1.32s-.58,1.31.14,1.14a.23.23,0,0,0,.13-.36c0-.05-.12-.13-.08-.2.19-.41.46.33.45.39a.81.81,0,0,1-.79.65.76.76,0,0,1-.58-1.22c.2-.24-.15-.58-.37-.35Z"/><path class="cls-9" d="M140.26,474.56c.33.77,1.23,1.65,2.14,1.38s.92-1.19.78-1.88-.72-1.57-1.56-1.34-1.16,1.31-.29,1.63c.2.07.37-.16.31-.34-.2-.59.37-.95.85-.56a1.67,1.67,0,0,1,.49,1.29,1,1,0,0,1-1.37.92c-.58-.21-.84-.75-1.25-1.15-.05-.05-.13,0-.1.05Z"/><path class="cls-9" d="M166.41,460.39a1.62,1.62,0,0,0,1.58,1.43.09.09,0,1,0,0-.18,1.62,1.62,0,0,1-1.34-1.3c0-.16-.27-.12-.25.05Z"/><path class="cls-9" d="M168.88,460.17c-.38-.38-.92-.85-1.5-.62a.66.66,0,0,0-.32,1.08c.14.15.47,0,.43-.18s0-.5.36-.53.59.21.83.43.34-.05.2-.18Z"/><path class="cls-9" d="M174.1,456.5a1.4,1.4,0,0,0-.52,1.48,1,1,0,0,0,1.09.62,1.42,1.42,0,0,0,1.08-.8,3,3,0,0,0-.14-2.05.39.39,0,0,0-.56-.17,1,1,0,0,0-.46,1.19.26.26,0,0,0,.5,0,1,1,0,0,1,.4-.6l-.56-.17c.18.52.49,1.43-.11,1.8-.15.1-.43.18-.58,0s.13-.72.33-.9-.19-.64-.47-.4Z"/><path class="cls-9" d="M103.43,461.69a1.45,1.45,0,0,0,1.64.78,1.3,1.3,0,0,0,.94-1.54,1.35,1.35,0,0,0-1.39-1.11c-.61,0-1.35.52-1.19,1.21a.43.43,0,0,0,.73.2c.14-.14.3-.39.52-.41s.34.17.33.4a.38.38,0,0,1-.43.39c-.32,0-.48-.28-.73-.42s-.58.22-.42.5Z"/><path class="cls-9" d="M112.42,455.92a1.19,1.19,0,0,0,.36,1.62,1.24,1.24,0,0,0,1.76-.43,1.3,1.3,0,0,0-.37-1.76c-.42-.29-1.59-.51-1.7.23a.28.28,0,0,0,.22.31c.26.07.51-.07.77,0a.53.53,0,0,1,.44.66c-.24.85-1.27.33-1-.43.1-.29-.33-.39-.48-.18Z"/><path class="cls-9" d="M114.77,462.1a.43.43,0,0,0,0-.55.3.3,0,0,0-.33-.12c-.62.2-1.42,1.38-.69,1.89a2.16,2.16,0,0,0,2.56-.38c.26-.25-.15-.66-.44-.47a1.8,1.8,0,0,1-1.83.19l.22.3a.88.88,0,0,1,.43-1h-.28l.19.15a.12.12,0,0,0,.2,0Z"/><path class="cls-9" d="M122.34,457.93a1.64,1.64,0,0,0-.61,2.3,1.55,1.55,0,0,0,2.29.34,1.5,1.5,0,0,0,0-2.13,1.29,1.29,0,0,0-2,.32c-.07.19.22.39.38.27.34-.25.73-.51,1.16-.25a.79.79,0,0,1-.08,1.28.92.92,0,0,1-1.14-.25,1,1,0,0,1,.33-1.4c.31-.21,0-.66-.33-.48Z"/><path class="cls-9" d="M131.71,454.83a1.4,1.4,0,0,0-1.77,1.22,1.28,1.28,0,0,0,1.63,1.29.18.18,0,0,0,0-.36,1,1,0,0,1-1-.92.85.85,0,0,1,1-.75.25.25,0,1,0,.11-.48Z"/><path class="cls-9" d="M132.14,456a1.47,1.47,0,0,0-1.1-.93.15.15,0,1,0-.08.28,2.54,2.54,0,0,1,1,.75c.08.08.24,0,.21-.1Z"/><path class="cls-9" d="M124.35,471c-.65-.15-.64,1-.42,1.34a1.36,1.36,0,0,0,2.15,0,1.73,1.73,0,0,0,0-2.36c-.46-.41-1.57-.6-1.74.2a.25.25,0,0,0,.31.29c.31-.11.64-.31,1-.12.5.31.3,1.07,0,1.42s-.89.61-1.2.18,0-.5,0-.82a.11.11,0,0,0-.07-.1Z"/><path class="cls-8" d="M81.21,484c.79.91,1.86-.47,1.29-1.31a1.48,1.48,0,0,0-1.82-.41c-.59.29-.83,1-.19,1.41a.32.32,0,0,0,.46-.3c0-.51.7-.59,1-.41a.59.59,0,1,1-.66.94.06.06,0,0,0-.1.08Z"/><path class="cls-8" d="M80.79,495.58a2.38,2.38,0,0,0,2.2.54,1.22,1.22,0,0,0,.76-1.53,1.27,1.27,0,0,0-1.44-.94,1.25,1.25,0,0,0-1,1.63c.09.2.49.28.51,0,0-.46.22-1,.75-1.15a.84.84,0,0,1,.93.82c.06.63-.57,1-1.13,1a2.53,2.53,0,0,1-1.46-.55c-.12-.09-.24.1-.12.18Z"/><path class="cls-4" d="M206.12,477.6c-.65.91-1,2.42.06,3.18a1.21,1.21,0,0,0,2-.75c.18-.85-.19-2.15-1.16-2.36s-1.77.9-1,1.54c.21.17.59,0,.47-.29a.41.41,0,0,1,.46-.51c.31,0,.47.51.53.76s.1,1.05-.36,1.21-1-.4-1-.86a4.45,4.45,0,0,1,.42-1.75c.07-.24-.26-.35-.39-.17Z"/><path class="cls-8" d="M210.9,483.57a1.36,1.36,0,0,0-.25,1.94,1.32,1.32,0,0,0,1.93,0,1.36,1.36,0,0,0-.11-1.8,1,1,0,0,0-1.69.23c-.07.2.2.32.34.2a.75.75,0,0,1,1.15,0,.67.67,0,0,1-.21.94.64.64,0,0,1-.77-1c.33-.27-.06-.79-.39-.54Z"/><path class="cls-9" d="M213.62,476.68a1.58,1.58,0,0,0-.47,1.78,1.29,1.29,0,0,0,1.39.68c1.35-.33.47-2.44-.39-1.75-.11.08-.07.27,0,.35s.23.16.28.28-.08.41-.32.36c-.66-.13-.39-1-.11-1.34a.27.27,0,0,0-.4-.36Z"/><path class="cls-9" d="M196.26,466a1.46,1.46,0,0,0-.91,2,1.39,1.39,0,0,0,2.21.35,1.29,1.29,0,0,0-.35-2c-.62-.27-1.93.19-1.58,1,0,.12.41.34.46.11s.66-.7.94-.4a.61.61,0,0,1-.13.82.71.71,0,0,1-1-.26,1,1,0,0,1,.48-1.34c.2-.11.06-.45-.16-.37Z"/><path class="cls-9" d="M199.51,462.26a.65.65,0,0,0-.76.85.94.94,0,0,0,1.41.31,1.47,1.47,0,0,0,.32-1.8c-.28-.43-1.14-.62-1.24,0a.25.25,0,0,0,.3.28c.42-.12.42.43.27.68a.47.47,0,0,1-.27.25c-.19,0-.33-.25-.08-.27a.17.17,0,0,0,0-.34Z"/><path class="cls-9" d="M88.75,458.27c.28.74.75,1.58,1.63,1.66a1.16,1.16,0,0,0,1.34-1.26c-.12-.78-1.17-1.73-2-1.5a.74.74,0,0,0-.07,1.43c.33.08.45-.32.25-.52a.08.08,0,0,0,0-.1.3.3,0,0,1,.38,0,2,2,0,0,1,.45.32c.32.29.52.77,0,1-.8.4-1.36-.54-1.62-1.15-.11-.26-.54-.17-.44.11Z"/><path class="cls-9" d="M95.43,473.87a20.71,20.71,0,0,0,.16-2.22.4.4,0,0,0-.44-.44c-1.43.13-1.71,2.25-.17,2.44a1.06,1.06,0,0,0,.34-2.1.38.38,0,0,0-.2.73c.2.06.36.38.13.5-.43.22-.68-.67,0-.81l-.42-.25a4.62,4.62,0,0,1,.37,2.14.11.11,0,0,0,.22,0Z"/><path class="cls-5" d="M750.37,141.31c-1.08.54-1.1,2.28-.86,3.31a4.43,4.43,0,0,0,2.52,3,6.12,6.12,0,0,0,4,.64c1.5-.49,2.57-2.37,3.18-3.7a4.27,4.27,0,0,0-.1-4.49,7.13,7.13,0,0,0-3.8-2.86,5,5,0,0,0-6.27,4.74c-.09,1.68,2.68,1.84,2.74.15a2.3,2.3,0,0,1,3.85-1.81A2.79,2.79,0,0,1,757,142.4a4.51,4.51,0,0,1-1,2.69,1.68,1.68,0,0,1-2,.8,3.71,3.71,0,0,1-2-1.07c-.82-1-.48-2.74-1.54-3.5a0,0,0,0,0-.07,0Z"/><path class="cls-5" d="M727.91,143.15a70.76,70.76,0,0,0,10.4.49c3.41,0,6.9.22,10.31,0a.82.82,0,1,0,0-1.63c-3.41-.22-6.9,0-10.32,0a71,71,0,0,0-10.42.5c-.35.05-.3.62,0,.67Z"/><path class="cls-5" d="M745.16,141.25a7.59,7.59,0,0,0,3.56,2.86l.26-2.25a6.31,6.31,0,0,0-3.35,1.94c-1,1.1.91,2.67,1.9,1.67a4.93,4.93,0,0,1,2.14-1.37,1.16,1.16,0,0,0,0-2.16c-1.23-.47-2.39-1.09-3.61-1.57-.51-.21-1.18.35-.86.88Z"/><path class="cls-5" d="M743.15,142.82c-.84.94-.63,2.44-.65,3.63s-.25,2.56.3,3.63a.71.71,0,0,0,1.28,0c.58-1.08.29-2.67.27-3.87s.14-2.46-.66-3.37a.38.38,0,0,0-.54,0Z"/><path class="cls-5" d="M743.64,149.5c-2.6-1-5.56-.76-8.3-.75-2.53,0-5.22-.27-7.71.25-1.07.23-.77,1.75.16,1.94,2.65.53,5.59.22,8.28.23,2.51,0,5.18.2,7.55-.74a.5.5,0,0,0,0-.93Z"/><path class="cls-5" d="M728,150.53l.12,0a.7.7,0,0,0,.58-.63,28,28,0,0,0,.15-3.77,10.91,10.91,0,0,0-.18-3.28c-.19-.58-1.16-.85-1.38-.13a12.52,12.52,0,0,0-.21,3.67,28.36,28.36,0,0,0,.17,3.57.71.71,0,0,0,.49.54,1,1,0,0,0,.26.06Z"/><path class="cls-5" d="M727.27,142.51a6,6,0,0,0-1.6,2.67c-.31.82.9,1.39,1.47.85a7.68,7.68,0,0,0,1.57-2.66l-1.79-.19a5.83,5.83,0,0,0,1.94,2.4c.92.6,1.78-.66,1.1-1.42l.18,1.09a.9.9,0,0,0-.18-1.09,8.12,8.12,0,0,1-1.29-1.73c-.42-.81-1.51-.43-1.78.26-.33.87-.87,1.63-1.22,2.49l1.7.48a24.11,24.11,0,0,1,.87-2.43.64.64,0,0,0-1-.72Z"/><path class="cls-5" d="M742.36,126.73c8.4.77,16,7.63,17.09,16,.37,2.76.4,4.93-.87,7.47a40.74,40.74,0,0,1-3.05,5.68c-1.44,2-3.68,2.6-5.81,3.63a15.48,15.48,0,0,1-6.67,1.86c-4.62.07-8.85-2.08-12.35-5a15.33,15.33,0,0,1-4.41-5,16.89,16.89,0,0,1-1-7c0-4.76,2.14-8.48,5.41-11.81a24.5,24.5,0,0,1,4.54-3.9c2.38-1.43,5-1.35,7.69-1.17a.94.94,0,0,0,.16-1.86c-4.64-.51-8.12,0-11.77,3a25,25,0,0,0-7.32,9.05,21.07,21.07,0,0,0-.62,12.95c.95,3.6,4,6.3,6.85,8.47a21.79,21.79,0,0,0,12,4.67c4.38.17,8-1.75,11.9-3.54s5.22-5.77,7-9.24c1.91-3.79,1.51-8.37.22-12.35a18.67,18.67,0,0,0-7.06-9.25c-3.3-2.37-7.78-4.63-11.93-4a.64.64,0,0,0,.07,1.27Z"/><path class="cls-5" d="M731.38,161.17l-.12.13c-.07.08.07.2.15.13l.13-.12c.1-.1-.06-.25-.16-.14Z"/><path class="cls-5" d="M732.1,160.92c-.17-1.07-.39-2.13-.61-3.19l-1.13,1.13a10.94,10.94,0,0,0,2.8,0,3,3,0,0,0,2.21-.85.75.75,0,0,0-.41-1.12,5.06,5.06,0,0,0-2.18.16,10.49,10.49,0,0,1-2.24,0c-.65-.07-1,.64-.87,1.17a20.74,20.74,0,0,0,1,3.17c.33.82,1.59.36,1.45-.48Z"/><path class="cls-4" d="M834.86,109.1c-1.94,1.6-1.88,5.22-1.21,7.42a9.38,9.38,0,0,0,5.77,5.92c2.45,1,6,2,8.42.48,2.64-1.67,4.59-5.07,5.71-7.9,1.21-3.08,1.26-5.93-.85-8.6-2-2.47-4.56-4.75-7.68-5.5a10.06,10.06,0,0,0-12.31,9.62c-.1,2.81,4.52,3.07,4.56.26.07-4.11,3.93-7.14,7.89-5.23a11.18,11.18,0,0,1,4.13,3.75c1.38,2.21,0,5-1.24,7-1.1,1.83-2.2,3.58-4.58,3.19a9.82,9.82,0,0,1-4.74-1.87c-2.76-2.29-1.58-6.08-3.7-8.55a.12.12,0,0,0-.17,0Z"/><path class="cls-4" d="M787.19,112.84a214.58,214.58,0,0,0,22,.81c3.67,0,7.33,0,11,0s7.66.4,11.35-.08c1.74-.23,1-2.5-.36-2.69-3.25-.42-6.74-.06-10,0l-11.48,0a214.16,214.16,0,0,0-22.52.81.58.58,0,0,0,.06,1.15Z"/><path class="cls-4" d="M824.23,109.06a17.49,17.49,0,0,0,7.33,5.46l.45-3.74a13.94,13.94,0,0,0-4.13,1.69c-1.18.73-3.06,2-3,3.53a2.09,2.09,0,0,0,1.07,1.76c1.12.55,2.54-.38,3.33-1.12a9.45,9.45,0,0,1,3.87-2.13c1.75-.51,1.43-3-.07-3.6-2.6-1-5.08-2.36-7.6-3.57-1.09-.53-1.88.88-1.26,1.72Z"/><path class="cls-4" d="M819.51,112.53c-1.27,1.82-.92,4.4-1,6.52,0,2.68-.62,6.12.48,8.59a1.18,1.18,0,0,0,2.13,0c1-2.22.48-5.19.45-7.59s.38-5.39-1-7.49a.66.66,0,0,0-1.11,0Z"/><path class="cls-4" d="M820.43,126.74c-2.16-1-4.77-1-7.1-1.18-3.16-.19-6.35-.08-9.51-.08h-9c-2.69,0-5.67-.35-8.27.42-1.84.54-1.21,2.74.26,3.22,2.32.76,5.18.37,7.61.37h9c3,0,6,.05,9,0,2.57-.09,5.6-.08,8-1.17a.84.84,0,0,0,0-1.55Z"/><path class="cls-4" d="M787.13,128.62c2.08-1,1.32-4.72,1.34-6.64,0-3,.59-6.73-.29-9.64-.29-1-1.94-1.42-2.3-.21-1,3.53-.36,8.1-.29,11.76,0,.3-.15,5.56,1.54,4.73Z"/><path class="cls-4" d="M785.82,111.85a13.11,13.11,0,0,0-3.2,5.58c-.48,1.33,1.51,2.38,2.44,1.41a17.51,17.51,0,0,0,3.24-5.6l-3-.32c.89,1.82,2.83,5.39,5.25,5,.75-.11.67-.6,1-1.09.48-.74-1.62-2.53-2.08-3.14a13.39,13.39,0,0,1-1.22-2c-.7-1.36-2.53-.7-3,.43-.72,1.87-1.85,3.51-2.65,5.33l2.82.79a34.22,34.22,0,0,1,2-5.18c.33-.89-.85-1.87-1.62-1.19Z"/><path class="cls-4" d="M817.82,77.68c7.11.25,14.74,3.94,20.53,7.92a40.24,40.24,0,0,1,12.82,14,31.72,31.72,0,0,1,3.27,9.6c.7,4,1.56,8.76.91,12.83-.61,3.82-3.05,7.39-4.81,10.76s-3.3,7.22-6,9.92-7.27,3.87-10.74,5.6a35,35,0,0,1-11.25,3.84c-7.95,1-16-1.39-22.79-5.44-6.07-3.62-13-8.77-16.37-15.15-1.8-3.38-2.15-7.29-2.46-11a41.89,41.89,0,0,1,.63-12.74c1.89-8.28,7.72-14.84,13.75-20.48,2.88-2.69,6-5.45,9.66-7,4.43-1.79,9.28-1.46,13.95-1.12,1.83.14,2.09-2.9.26-3.1-4.37-.47-8.85-1-13.18,0a26.31,26.31,0,0,0-10.52,5.64C789,87,782.86,93.33,779.38,101c-3.66,8-3.57,17.74-1.92,26.29,1.6,8.3,8.06,14.27,14.52,19.18,7,5.34,15.31,9.24,24.18,9.93A33.63,33.63,0,0,0,829,154.94c4.53-1.46,8.81-3.89,13.16-5.81,8.25-3.63,11.47-12.72,15.31-20.28,2.19-4.31,2.61-8.35,2.16-13.13a53.77,53.77,0,0,0-2.39-13C854.48,94.81,848.78,88.3,842,83.6c-6.65-4.61-16-9.4-24.26-8a1.07,1.07,0,0,0,.11,2.11Z"/><path class="cls-4" d="M794.47,151.39a1,1,0,0,0-.29.31c-.11.15.1.32.24.22a1.07,1.07,0,0,0,.31-.29c.11-.16-.12-.35-.26-.24Z"/><path class="cls-4" d="M795.58,150.94c-.43-2.26-.91-4.51-1.37-6.77l-1.88,1.9a22.66,22.66,0,0,0,5.52.09c1.51-.17,3.42-.25,4.54-1.37a1.24,1.24,0,0,0-.48-2.1c-1.55-.34-3,.29-4.52.44a23.05,23.05,0,0,1-4.77-.06c-1.08-.12-1.65,1.06-1.46,1.94a47.69,47.69,0,0,0,1.88,6.42c.55,1.44,2.86,1.2,2.54-.49Z"/><path class="cls-10" d="M936.62,16.55c-2.22,2.22-2.51,6.57-2.15,9.52a14.65,14.65,0,0,0,4.87,9.38c2.77,2.37,6.37,3.58,9.88,4.35,3.85.84,7.37,1.09,10.39-1.82,5.16-4.94,11.53-14.7,8.56-22.11-1.4-3.46-4.54-6.49-7.4-8.79A17.59,17.59,0,0,0,950,2.94a16.23,16.23,0,0,0-16.4,16c0,3.94,6.39,4.3,6.39.37,0-6.6,5.94-12,12.59-9.92,3.11,1,5.55,3.42,7.64,5.82,1.52,1.73,2.61,3.36,2.23,5.81a20.64,20.64,0,0,1-1.72,5.05c-1.21,2.69-3.18,6.54-5.7,8.24-2.35,1.58-7.65-.38-10-1.53a10.48,10.48,0,0,1-5.57-6.52c-1-3.09-.77-7-2.65-9.72a.19.19,0,0,0-.25,0Z"/><path class="cls-10" d="M856.59,22.64c6.51.56,12.87,1.09,19.41,1.1l18.47,0c6,0,12,0,18,0l9.5,0c2.92,0,6.08.44,9-.14a1.9,1.9,0,0,0,0-3.68c-2.75-.58-5.73-.19-8.54-.18l-9.47,0q-9.21,0-18.44,0l-17.94,0c-6.73,0-13.31.5-20,1.1a.81.81,0,0,0,.07,1.61Z"/><path class="cls-10" d="M919,16.27a31.09,31.09,0,0,0,12.28,8.85l.62-5.24c-3.9,1-12.5,4.23-11.26,9.42a2.52,2.52,0,0,0,2.5,1.6c2.31-.18,3.28-1.94,5-3.24a15.89,15.89,0,0,1,5.36-2.56c2.46-.7,2-4.22-.09-5a133.42,133.42,0,0,1-12.65-6.21c-1.49-.77-2.7,1.26-1.77,2.42Z"/><path class="cls-10" d="M911,22.36c-1.08,1.52-1.11,3.38-1.21,5.2-.13,2.42-.11,4.86-.15,7.28,0,2.26,0,4.51,0,6.77,0,2-.29,4.09.72,5.91.51.91,2.15,1.42,2.79.3,1.18-2.08.85-4.4.85-6.73s0-4.49,0-6.74c-.05-3.66.73-8.83-1.4-12a.92.92,0,0,0-1.55,0Z"/><path class="cls-10" d="M912.29,46.33a18,18,0,0,0-5.93-1.14c-2.35-.24-4.71-.48-7.08-.54-4.94-.14-9.88-.08-14.83-.08l-14.79,0c-4.58,0-9.46-.49-13.93.58-2.54.61-1.76,4,.37,4.52,4.41,1.1,9.45.51,14,.51l13.82,0c5.18,0,10.37.09,15.55-.09,2.2-.08,4.39-.25,6.59-.48s4.47-.27,6.48-1.28c.88-.44.49-1.7-.23-2Z"/><path class="cls-10" d="M856.38,49.25c2.86.1,2-12.29,2-14.12v-6.9c0-2.24.32-4.52-.56-6.61a1.72,1.72,0,0,0-3.09.09c-.83,2-.48,4.32-.48,6.46v6.9c0,4.27-.54,9.24.77,13.34a1.4,1.4,0,0,0,1.13.84Z"/><path class="cls-10" d="M854.49,21.35c-2.58,2.47-4,5.94-5.16,9.26-.64,1.84,2.12,3.39,3.41,2,2.41-2.61,4-6.08,5.33-9.34l-3.94.07c1.26,2.58,4.29,7.81,7.6,7.71a1.69,1.69,0,0,0,1.79-2c-.3-1.68-1.78-2.54-2.84-3.78a20.6,20.6,0,0,1-2.7-4.2c-1-1.9-3.54-1-4.15.61-1.16,3-2.92,5.59-4.29,8.46l3.74,1.59c.69-3.16,2.2-5.76,3.47-8.69.53-1.22-1.24-2.65-2.26-1.68Z"/><path class="cls-10" d="M908-36.5c6.74,0,13.62,2.47,19.78,5.09a85.13,85.13,0,0,1,14.4,7.71A68,68,0,0,1,964.55.36a53.71,53.71,0,0,1,5.54,16.37c1.18,6.85,2.5,14.59,1.51,21.52a28.87,28.87,0,0,1-3.23,8.86c-1.78,3.48-3.62,6.94-5.43,10.4-2.94,5.64-5.6,12.28-10.5,16.54a28.43,28.43,0,0,1-7.85,4.43c-3.29,1.38-6.52,2.82-9.72,4.41-6.16,3.08-12.21,5.62-19.11,6.45C902.38,91,888.89,87,877.43,80.15a102.1,102.1,0,0,1-15.13-11.1c-4.79-4.21-9.59-8.86-12.62-14.54S846,42.1,845.46,35.68a71.79,71.79,0,0,1,1-21.3C849.48.62,859.06-10.4,869-19.8c5-4.71,10.32-9.58,16.72-12.28,7.61-3.21,16-2.63,24-2,2.57.2,2.93-4.07.37-4.34-7.4-.78-15-1.6-22.33.21C881-36.53,875.05-32.49,869.73-28c-10.34,8.69-20.21,18.91-25.8,31.38-6,13.45-5.85,29.72-3,44,2.8,14,14.21,24.14,25.19,32.26,11.58,8.56,25.21,14.76,39.71,15.73a56,56,0,0,0,21.77-2.75c7-2.4,13.62-6.23,20.45-9.16a30.58,30.58,0,0,0,15.17-13.52c3.89-6.75,7.38-13.81,10.91-20.75a33.93,33.93,0,0,0,3.52-9.93c.65-4,.25-8.11-.14-12.11-.72-7.37-1.59-14.68-4.11-21.69-4.57-12.72-13.84-23.29-24.8-31a87.09,87.09,0,0,0-18-9.74c-7.26-2.89-14.9-5.38-22.78-4.12-1.69.27-1.62,3,.15,3Z"/><path class="cls-5" d="M868.92,87.62a3.48,3.48,0,0,0-.47.47c-.09.12.09.27.2.18a3.41,3.41,0,0,0,.47-.46c.1-.12-.09-.29-.2-.19Z"/><path class="cls-10" d="M870.37,87c-.79-3.84-1.63-7.66-2.4-11.49l-2.64,2.65a37.21,37.21,0,0,0,9,.16c2.45-.27,5.67-.4,7.53-2.15,1.23-1.17.31-2.77-1.14-3-2.24-.42-4.79.73-7.05.95a38.31,38.31,0,0,1-7.94-.12c-1.52-.17-2.31,1.49-2,2.72a86.67,86.67,0,0,0,3.13,11c.74,2,4,1.66,3.54-.67Z"/><path class="cls-5" d="M470.6,172.37c-.35-4-6-5.68-9.32-4.52a6,6,0,0,0-3.88,4.38,39.45,39.45,0,0,0-1,9.69c.08,4.88,4.16,8.21,8.85,8.47,2.21.12,4.74-.25,6.33-1.94s1.94-3.83.48-5.56c-.77-.9-2.08-.09-2.15.88-.12,1.66-.57,2.74-2.29,3.19a7.35,7.35,0,0,1-3.92-.17c-3.37-1.07-3.94-3.8-3.74-7,.08-1.26.15-2.52.22-3.78s-.12-3,.53-4.06c1.62-2.6,6.88-2.16,8,.73.33.83,2,.65,1.89-.33Z"/><path class="cls-5" d="M508.31,189.19c2.09-2.28,3-5.92,4.09-8.76,1.39-3.59,2.71-7.2,4-10.81.47-1.31-1.65-1.91-2.16-.65-1.4,3.46-2.81,6.92-4.15,10.4-1.12,2.91-3,6.28-2.91,9.44a.65.65,0,0,0,1.1.38Z"/><path class="cls-5" d="M514.78,169.11a64.18,64.18,0,0,0,3.38,10.58c1.21,3.11,2.41,7.09,4.62,9.63a1.19,1.19,0,0,0,2-1.09c-.58-2.86-2.56-5.74-3.79-8.4-1.7-3.69-3.26-7.45-5.15-11-.25-.48-1.19-.25-1.07.32Z"/><path class="cls-5" d="M511.66,180.31a12.5,12.5,0,0,0,3.81.3c1.21,0,2.54.08,3.38-.9a.81.81,0,0,0-.19-1.15c-1-.65-1.93-.34-3-.21a30.36,30.36,0,0,0-4.14.6c-.8.21-.41,1.19.17,1.36Z"/><path class="cls-5" d="M519.49,169.86c2.24,1.82,7,.94,9.76.94,3.09,0,7.38.65,10.21-.7a.88.88,0,0,0-.09-1.62c-2.55-1.26-6.33-.67-9.12-.68-1.92,0-3.83,0-5.75,0-1.73,0-3.59-.22-5,.91a.73.73,0,0,0,0,1.16Z"/><path class="cls-5" d="M530,169.17a52.8,52.8,0,0,0-.88,9.31c0,1.7,0,3.39,0,5.09s-.26,3.74.4,5.45a1.17,1.17,0,0,0,2.2.08c1-2.84.43-6.72.39-9.71a52,52,0,0,0-.89-10.12c-.12-.6-1.05-.81-1.19-.1Z"/><path class="cls-5" d="M541.55,169c-1.2,3.09-.88,6.39-.86,9.65s-.6,7.18.5,10.18a1.1,1.1,0,0,0,2.07.11c1-3,.5-7,.52-10.15s.34-6.59-.86-9.73a.76.76,0,0,0-1.37-.06Z"/><path class="cls-5" d="M541.45,169.91c2.34.82,5,.46,7.45.41s5.23.4,7.42-.49a.56.56,0,0,0,.06-1c-2.24-.89-5-.48-7.43-.53s-5.14-.42-7.48.38a.68.68,0,0,0,0,1.26Z"/><path class="cls-5" d="M542.65,178.43a24.39,24.39,0,0,0,4.75.34c1.33,0,2.71.23,3.89-.44.5-.29.27-.94-.14-1.17-1.09-.62-2.45-.39-3.68-.4a24.18,24.18,0,0,0-4.81.33.68.68,0,0,0,0,1.34Z"/><path class="cls-5" d="M541.43,189.33c2.82.06,5.58.38,8.39.4a46.62,46.62,0,0,0,6.89,0c1.26-.18.86-1.84-.21-2-2.3-.32-4.73,0-7,0-2.72,0-5.39.34-8.11.4-.75,0-.62,1.1.09,1.11Z"/><path class="cls-5" d="M490.59,169c-1.2,3.09-.88,6.39-.86,9.65s-.6,7.18.5,10.18a1.1,1.1,0,0,0,2.07.11c1-3,.5-7,.52-10.15s.34-6.59-.86-9.73a.76.76,0,0,0-1.37-.06Z"/><path class="cls-5" d="M490.49,169.91c2.34.82,5,.46,7.45.41s5.23.4,7.42-.49a.56.56,0,0,0,.06-1c-2.24-.89-5.05-.48-7.43-.53s-5.14-.42-7.48.38a.68.68,0,0,0,0,1.26Z"/><path class="cls-5" d="M491.68,178.43a24.5,24.5,0,0,0,4.76.34c1.32,0,2.71.23,3.88-.44.51-.29.27-.94-.13-1.17-1.09-.62-2.46-.39-3.69-.4a24.13,24.13,0,0,0-4.8.33.68.68,0,0,0,0,1.34Z"/><path class="cls-5" d="M490.47,189.33c2.81.06,5.58.38,8.39.4a46.49,46.49,0,0,0,6.88,0c1.27-.18.87-1.84-.21-2-2.29-.32-4.73,0-7,0-2.72,0-5.38.34-8.1.4-.75,0-.62,1.1.09,1.11Z"/><path class="cls-5" d="M474.5,168.71c-.86,1.25-.69,2.55-.72,4,0,1.93-.06,3.86-.07,5.79,0,3.44-.61,7.43.15,10.79.22.95,1.84,1.15,2.09.11.79-3.39.18-7.41.16-10.88,0-1.92,0-3.83-.06-5.75,0-1.53.11-2.8-.75-4.09a.47.47,0,0,0-.8,0Z"/><path class="cls-5" d="M474.7,169.38c2.63,1.54,9.38-.91,10.61,2.6.73,2.07-.86,4.09-2.54,5a14.4,14.4,0,0,1-6.11,1.34,1.31,1.31,0,1,0,.19,2.62c4.7-.33,12.22-2.16,11.08-8.53a5.35,5.35,0,0,0-4.57-4.33,27.07,27.07,0,0,0-4.32-.21c-1.52,0-3.06-.28-4.43.43-.46.23-.26.83.09,1Z"/><path class="cls-5" d="M481.83,179.6c1.49,3.06,3.29,5.93,4.21,9.23.55,1.95,3.88,1.51,3.3-.49-1.1-3.77-2.87-7.47-6.26-9.65-.62-.4-1.64.11-1.25.91Z"/></g></svg>