<svg id="background" xmlns="http://www.w3.org/2000/svg" viewBox="0 0 190.46 127.97"><defs><style>.cls-1{fill:#231f20;}.cls-2{fill:#808285;}.cls-3{fill:#a7a9ac;}</style></defs><title>metafeedback</title><path class="cls-1" d="M126.17,89.35A7.65,7.65,0,0,0,131,99.92c1.62.52,3.84,1.18,5.42.24,2.14-1.28,3.69-4.22,4.53-6.48s.79-4.2-.77-6.16a11.17,11.17,0,0,0-5.63-4.11,7.43,7.43,0,0,0-9.2,7.15c0,1.12,1.79,1.22,1.83.09a5.59,5.59,0,0,1,8.58-4.82A10.69,10.69,0,0,1,139,88.94c1.43,2.13.32,4.64-.85,6.64-.9,1.53-2.05,3.35-4,3.4a9.1,9.1,0,0,1-3.78-1c-3.74-1.75-3.12-5.28-4.06-8.63a.06.06,0,0,0-.1,0Z"/><path class="cls-1" d="M86.32,92.16c6.12.31,12.23.33,18.36.33s12.29.32,18.37,0a.55.55,0,1,0,0-1.09c-6.25-.32-12.6,0-18.87,0-6,0-11.92,0-17.88.33a.23.23,0,1,0,0,.45Z"/><path class="cls-1" d="M117.66,89A17.66,17.66,0,0,0,123.73,93l.18-1.51c-1.82.47-4.67,1.62-5.24,3.62-.18.64.63.92,1.09.7a15.85,15.85,0,0,0,1.91-1.58A8.77,8.77,0,0,1,124.38,93c.71-.2.55-1.21,0-1.45a38.51,38.51,0,0,1-6.07-3.25c-.41-.26-1,.22-.61.63Z"/><path class="cls-1" d="M113.56,92.35a24.06,24.06,0,0,0-.37,6.06,34.17,34.17,0,0,0,.16,6.07.47.47,0,0,0,.92,0,33,33,0,0,0,.16-6,25.06,25.06,0,0,0-.38-6.06.26.26,0,0,0-.49,0Z"/><path class="cls-1" d="M113.86,104.33c-4.46-.81-9.21-.48-13.73-.48s-9.36-.43-13.88.14a.67.67,0,0,0-.07,1.33c4.49.57,9.27.15,13.8.15s9.38.37,13.87-.48a.33.33,0,0,0,0-.66Z"/><path class="cls-1" d="M86.28,105.44c.82-1.86.49-4.17.5-6.18a59.3,59.3,0,0,0-.13-7.18c-.06-.53-.88-.47-.94,0a62.13,62.13,0,0,0-.12,7.6c0,1.91-.26,4,.5,5.73a.1.1,0,0,0,.19,0Z"/><path class="cls-1" d="M85.4,92a12.21,12.21,0,0,0-2.28,4.41c-.21.66.72.91,1.08.46a17.76,17.76,0,0,0,2.44-4.46l-1.13,0c.64,1.3,1.78,3.23,3.26,3.69.39.12.82-.27.6-.66a13.24,13.24,0,0,0-1.53-1.74,11,11,0,0,1-1.23-1.94.66.66,0,0,0-1.13,0,34.94,34.94,0,0,1-2.3,4.47l1.08.46a18.21,18.21,0,0,1,1.86-4.33c.22-.42-.45-.72-.72-.4Z"/><path class="cls-1" d="M3.57,92.76c11.17.31,22.33.32,33.51.33H53.35c5.71,0,11.53.32,17.24,0a.55.55,0,0,0,0-1.1c-5.55-.31-11.2,0-16.76,0H36.58c-11,0-22,0-33,.32-.31,0-.27.45,0,.46Z"/><path class="cls-1" d="M61.24,93.47c-.68,4.14-.36,8.52-.37,12.7s-.41,8.58.16,12.7a.47.47,0,0,0,.92,0c.55-4,.17-8.2.16-12.2,0-4.32.33-8.85-.37-13.12,0-.25-.45-.37-.5-.06Z"/><path class="cls-1" d="M61.54,119a130.79,130.79,0,0,0-14.95-.47c-4.83,0-9.66,0-14.49,0-9.48,0-19.13-.5-28.6.14-.76,0-.87,1.27-.07,1.33,9.6.69,19.4.15,29,.15,4.66,0,9.32,0,14,0a131.23,131.23,0,0,0,15.11-.46.34.34,0,0,0,0-.67Z"/><path class="cls-1" d="M3.4,118.84c1.19-3.73.49-8.55.5-12.43,0-4.43.39-9.09-.13-13.48-.06-.53-.88-.48-.94,0-.53,4.54-.13,9.35-.12,13.93,0,3.78-.64,8.29.49,11.93,0,.09.17.13.2,0Z"/><path class="cls-1" d="M112,62.58c6.24,0,12.9,3.2,18,6.69a33.48,33.48,0,0,1,11.15,12.51,27.83,27.83,0,0,1,2.48,8c.61,3.77,1.48,8.38.29,12.1-.91,2.82-2.59,5.43-4,8-1.71,3.29-3.26,7.13-6.46,9.26-2.44,1.62-5.43,2.52-8.06,3.83a29,29,0,0,1-9.53,3.15c-6.9.81-13.81-1.29-19.7-4.82-5.23-3.15-11.22-7.65-14-13.25-1.33-2.68-1.64-5.7-1.91-8.64a36.87,36.87,0,0,1,.46-11.34c1.6-7.12,6.54-12.79,11.76-17.63,2.55-2.37,5.28-4.76,8.58-6,3.75-1.46,7.84-1.13,11.76-.81.74.06.84-1.17.11-1.24-3.39-.34-6.86-.69-10.22,0A21,21,0,0,0,93.88,67c-5.21,4.26-10.23,9.39-13.1,15.56-3.06,6.56-3,14.3-1.74,21.31s6.56,11.88,12,16c5.62,4.24,12.2,7.37,19.28,8a27.2,27.2,0,0,0,10.31-1c3.64-1.13,7-3.13,10.47-4.6a14.71,14.71,0,0,0,7.17-5.7c2.13-3.3,3.8-7,5.6-10.46a17.26,17.26,0,0,0,2.2-9.68,47.51,47.51,0,0,0-1.83-11.5,32.53,32.53,0,0,0-12.43-16.16c-5.46-3.89-13-7.73-19.85-7a.42.42,0,0,0,0,.84Z"/><path class="cls-2" d="M175.9,53.45c-1.94,3.22.3,6.84,3.54,7.84,1.28.4,2.85.82,4.05,0a9.83,9.83,0,0,0,3.23-4.64c1.3-3.5-1.53-7.1-5.07-7.8a5.59,5.59,0,0,0-6.6,5.43c-.06,1.12,1.79,1.23,1.84.1a3.76,3.76,0,0,1,5.82-3.23,7.54,7.54,0,0,1,2.44,2.49c.59,1.24-.2,2.83-.79,3.9S183,60,181.62,60.15a5.83,5.83,0,0,1-2.7-.7c-2.54-1.25-2-3.79-2.94-6a0,0,0,0,0-.08,0Z"/><path class="cls-2" d="M147.33,55.55a224.72,224.72,0,0,0,26.34.32.55.55,0,0,0,0-1.1,225.06,225.06,0,0,0-26.36.32.23.23,0,0,0,0,.46Z"/><path class="cls-2" d="M169.7,53.26a11.55,11.55,0,0,0,4.37,3.06l.17-1.51c-1.36.35-3.83,1.3-3.92,2.95,0,.46.57.72.94.6.62-.2,1-.71,1.46-1.1a5.9,5.9,0,0,1,2-.95c.71-.2.56-1.21,0-1.45a35.79,35.79,0,0,1-4.36-2.23c-.42-.23-1,.2-.62.63Z"/><path class="cls-2" d="M166.81,55.54a12.6,12.6,0,0,0-.39,4.42,17.7,17.7,0,0,0,.16,4.37c.1.38.77.56.89.09a17,17,0,0,0,.19-4.46,13.07,13.07,0,0,0-.38-4.37c-.06-.17-.39-.27-.47-.05Z"/><path class="cls-2" d="M167.09,64.11c-3.19-.7-6.59-.48-9.83-.48a77.55,77.55,0,0,0-10,.14c-.74.1-.89,1.22-.07,1.33,3.55.48,7.32.15,10.9.15a41.16,41.16,0,0,0,9.08-.49c.37-.08.21-.58-.08-.65Z"/><path class="cls-2" d="M147.32,65c.8-1.27.5-3,.5-4.44a32.22,32.22,0,0,0-.12-5.2c-.08-.53-.86-.46-.94,0a31.6,31.6,0,0,0-.12,5.15c0,1.46-.28,3.15.5,4.43,0,.06.14.09.18,0Z"/><path class="cls-2" d="M146.57,55.3a8.4,8.4,0,0,0-1.69,3.19.6.6,0,0,0,1,.57,11.61,11.61,0,0,0,1.86-3.31l-1.2-.12c.5,1,1.42,2.67,2.65,2.85a.48.48,0,0,0,.52-.57c-.18-.55-.65-.84-1-1.27a8.39,8.39,0,0,1-1-1.52.67.67,0,0,0-1.13,0,33.24,33.24,0,0,1-1.62,3.21l1.08.46a14.44,14.44,0,0,1,1.27-3.1c.21-.44-.43-.71-.72-.41Z"/><path class="cls-2" d="M165.7,34.39c7.93.2,16.48,6.13,20.23,12.93a25,25,0,0,1,2.75,13c-.19,2.47-1.52,4.57-2.64,6.71s-2.09,4.57-3.73,6.39-3.72,2.3-5.73,3.24c-2.38,1.11-4.6,2.34-7.23,2.79a21.87,21.87,0,0,1-14.51-3.09c-3.77-2.2-8-5.36-10.14-9.28s-2.11-9.78-1.29-14c1-5.21,4.53-9.34,8.29-12.87a21,21,0,0,1,6.08-4.39c2.7-1.11,5.69-.87,8.53-.65.73,0,.84-1.18.1-1.25-5.44-.55-9.67-.06-14,3.49-3.76,3.09-7.37,6.82-9.39,11.3-2.2,4.89-2.23,11.13-.93,16.28,1.18,4.65,5.15,8.1,8.88,10.82a26.58,26.58,0,0,0,14.64,5.53c5.46.18,10.25-2.28,15-4.62,4.39-2.14,6.26-7.48,8.34-11.6,2.31-4.58,1.57-10.54-.05-15.28a23.65,23.65,0,0,0-9-11.44c-4-2.79-9.3-5.44-14.27-4.89a.42.42,0,0,0,0,.84Z"/><path class="cls-3" d="M145.64,15.74c-1.8,2.16,0,5.27,2.26,6.15,1.09.42,2.63.87,3.7.22a7.46,7.46,0,0,0,2.61-3.51,3.79,3.79,0,0,0-.24-4,6.68,6.68,0,0,0-3.52-2.6,4.57,4.57,0,0,0-5.66,4.36c-.06,1.13,1.79,1.23,1.83.1a2.76,2.76,0,0,1,4.25-2.38A5.13,5.13,0,0,1,152.72,16c.36,1.16-.35,2.56-1,3.49a2.24,2.24,0,0,1-2.31,1.21,4.12,4.12,0,0,1-2.23-1c-1.09-1.08-.75-2.69-1.49-3.92,0,0-.07,0-.09,0Z"/><path class="cls-3" d="M123.28,17.44a147.8,147.8,0,0,0,20.62.32.55.55,0,1,0,0-1.1,146.54,146.54,0,0,0-20.64.32.23.23,0,0,0,0,.46Z"/><path class="cls-3" d="M140.72,15.66a8.52,8.52,0,0,0,3.43,2.49l.18-1.51c-1,.25-3.42,1.14-3.2,2.49a.72.72,0,0,0,.48.59.66.66,0,0,0,.37,0,4.23,4.23,0,0,0,.38-.2c.37,0,.89-.68,1.19-.87a4.69,4.69,0,0,1,1.24-.53c.71-.2.57-1.21,0-1.45-1.22-.48-2.36-1.13-3.54-1.72-.43-.22-.76.35-.5.69Z"/><path class="cls-3" d="M138.48,17.35a8.06,8.06,0,0,0-.39,3.5,10.74,10.74,0,0,0,.2,3.54.47.47,0,0,0,.86,0,12,12,0,0,0,.18-3.79,7.48,7.48,0,0,0-.4-3.23.27.27,0,0,0-.45,0Z"/><path class="cls-3" d="M138.76,24a30.92,30.92,0,0,0-7.69-.48,58.84,58.84,0,0,0-7.86.14c-.75.1-.9,1.22-.07,1.33a65.3,65.3,0,0,0,8.74.15,27,27,0,0,0,7-.49c.37-.1.21-.57-.08-.65Z"/><path class="cls-3" d="M123.27,24.85c.81-.89.51-2.36.52-3.5a19.93,19.93,0,0,0-.12-4.09c-.09-.41-.82-.57-.92-.09a19.25,19.25,0,0,0-.14,4.16c0,1.14-.28,2.6.51,3.51a.11.11,0,0,0,.15,0Z"/><path class="cls-3" d="M122.69,17.07a6.29,6.29,0,0,0-1.46,2.59c-.18.53.61,1,1,.57a8.72,8.72,0,0,0,1.49-2.62l-1.2-.12c.41.85,1.25,2.36,2.34,2.29a.47.47,0,0,0,.39-.5.52.52,0,0,0-.13-.28c-.08-.1-.3-.11-.35-.18.17-.1.19-.19.07-.26l-.2-.19a3.75,3.75,0,0,1-.37-.44,6.19,6.19,0,0,1-.58-.95.67.67,0,0,0-1.13,0c-.34.89-.85,1.67-1.26,2.52l1.08.45a13,13,0,0,1,1-2.42c.15-.35-.35-.76-.64-.48Z"/><path class="cls-3" d="M137.66.91c8.1.44,16.08,7.25,17.38,15.25.43,2.63.76,5.25-.36,7.74a56.5,56.5,0,0,1-3.11,5.92c-1.37,2.28-3.33,3-5.6,4a18.88,18.88,0,0,1-6.8,2.25c-4.85.35-9.39-1.77-13.11-4.74a18.2,18.2,0,0,1-4.53-4.73c-1.25-2.16-1.41-5-1.43-7.46a16.64,16.64,0,0,1,5-12,25.51,25.51,0,0,1,5.09-4.42c2.46-1.48,5.17-1.39,7.92-1.19.73.06.84-1.17.1-1.24-4.15-.43-7.5-.13-10.86,2.54A26.24,26.24,0,0,0,120,11.55c-1.88,3.84-1.92,8.53-1.09,12.67.73,3.64,3.39,6.24,6.2,8.48a22.19,22.19,0,0,0,11.62,5c4.48.41,7.87-1.46,11.84-3.16s5.17-5,7-8.51c2.06-4,2-7.92.82-12.24a18.25,18.25,0,0,0-7.08-9.72c-3.21-2.34-7.59-4.53-11.65-4a.42.42,0,0,0,0,.84Z"/><path class="cls-1" d="M66.22,89.87c1.56,1.31,3.22,2.39,4.86,3.6l.16-1.33a12.69,12.69,0,0,0-5.13,3.73c-.7.84.73,1.74,1.41,1a12.41,12.41,0,0,1,4.37-3.26.77.77,0,0,0,0-1.43c-1.78-.93-3.48-1.93-5.33-2.74a.29.29,0,0,0-.32.47Z"/><path class="cls-1" d="M3.68,93c-.94.15-1.59,1.14-2.12,1.87a13.1,13.1,0,0,0-1.5,2.75.82.82,0,0,0,1.42.78q1.5-2.2,3-4.43l-1.57-.33c.35,1.69.94,4.26,2.36,5.38.45.35,1.32.06,1.21-.59a11.09,11.09,0,0,0-1-2.38,15.08,15.08,0,0,1-.84-2.7A.9.9,0,0,0,3,93.05c-1,1.47-1.92,3-2.86,4.44l1.42.77a15.06,15.06,0,0,1,1.27-2.73C3.24,94.88,4,94.19,4,93.42A.34.34,0,0,0,3.68,93Z"/><path class="cls-1" d="M17.22,75.77c0,1.68.16,3.35.22,5a21.77,21.77,0,0,0,.29,4.43c.12.47.92.58,1,.06.7-2.88-.17-6.82-1-9.6a.26.26,0,0,0-.51.08Z"/><path class="cls-1" d="M13.47,76.48c1.86-.21,3.73-.4,5.6-.46,1,0,3.37-.43,4.21.18.4.3.66.17,1-.12,1.57-1.38-1.65-1.54-1.76-1.54a28.26,28.26,0,0,0-3.19.08,30.27,30.27,0,0,0-6.06,1.13c-.45.13-.21.78.21.73Z"/><path class="cls-1" d="M21.53,83.5A5,5,0,0,0,24,82.36c.59-.51,1.35-1.39,1.2-2.23-.36-2-3.19-.65-3.91.32a3.1,3.1,0,0,0,.33,4.22c1.08,1,3.77,1.49,4.42-.24.14-.38-.3-.79-.66-.76-.82.07-1.42.54-2.26.16a1.52,1.52,0,0,1-.86-1.92,2.05,2.05,0,0,1,.66-1c.16-.12.34-.17.5-.28s.32-.22.09,0a12.51,12.51,0,0,1-.79,1,4.07,4.07,0,0,1-1.52.88c-.54.18-.2,1,.31.88Z"/><path class="cls-1" d="M46.5,83.5A5,5,0,0,0,49,82.36c.59-.51,1.35-1.39,1.2-2.23-.36-2-3.19-.65-3.91.32a3.1,3.1,0,0,0,.33,4.22c1.08,1,3.78,1.49,4.42-.24.14-.38-.3-.79-.66-.76-.82.07-1.42.54-2.26.16a1.51,1.51,0,0,1-.85-1.92,2,2,0,0,1,.65-1c.16-.12.34-.17.5-.28s.32-.22.09,0a10.61,10.61,0,0,1-.79,1,4.07,4.07,0,0,1-1.52.88c-.54.18-.19,1,.31.88Z"/><path class="cls-1" d="M31.06,79.48a2.12,2.12,0,0,0-2.82-.38,3.44,3.44,0,0,0-1.43,3.24,3.57,3.57,0,0,0,1.83,2.94,2.51,2.51,0,0,0,3.17-.56c.31-.45-.26-1.07-.75-.89s-1.15.53-1.8.21a2.12,2.12,0,0,1-1-1.46,2.54,2.54,0,0,1,.42-2.14A2,2,0,0,1,30.74,80a.32.32,0,0,0,.32-.5Z"/><path class="cls-1" d="M39.36,79.23c.14,1.75.33,3.48.58,5.22.11.74,1.37.9,1.45.07a9.66,9.66,0,0,1,.48-2.39c.13-.37.69-1.94,1.15-1.94L42.43,80c.66.48.53,2.32.68,3a2.42,2.42,0,0,0,1.4,2,.55.55,0,0,0,.7-.64c-.16-.57-.46-1.08-.58-1.67s-.14-1.16-.24-1.73c-.13-.83-.39-2.13-1.37-2.33-1.14-.24-1.83,1.18-2.23,2a8.67,8.67,0,0,0-.85,3.74l1.46-.12c-.35-1.75-.75-3.48-1.21-5.21a.42.42,0,0,0-.83.11Z"/><path class="cls-1" d="M33.29,75.24c-.58,3-.13,6.2-.17,9.24a.6.6,0,0,0,1.2,0,8.33,8.33,0,0,1,.38-2.43c.22-.67,1.16-2.3,1.92-1,.53.92.32,2.41.68,3.45.16.47,1,.55,1-.05C38.35,83,38.25,79,36,79s-2.83,3.84-2.85,5.48h1.2c-.16-3,.14-6.28-.59-9.25a.23.23,0,0,0-.44,0Z"/><path class="cls-1" d="M157.88,96.61c-.08,1-.3,2,.33,2.81a2,2,0,0,0,2,.85c1.7-.39,2.27-2.73,2-4.2s-1.86-3.41-3.56-2.47a3.53,3.53,0,0,0-1,4.73c.24.33.92.15.9-.29a4.67,4.67,0,0,1,.16-2.62c.83-1.64,2.17-.16,2.35,1a2.84,2.84,0,0,1-.76,2.55c-1.49,1.17-2.2-1.38-2.28-2.4a0,0,0,0,0-.09,0Z"/><path class="cls-1" d="M163,94.18c0,1.63.11,3.2.3,4.82.07.57,1.07.86,1.17.17.16-1.11-.34-2.84.46-3.75a1.55,1.55,0,0,1,1.42-.46c.5.09.78.5,1.25.63a.45.45,0,0,0,.62-.37c0-1.51-2.36-1.7-3.37-1.25-2,.89-1.5,3.29-1.55,5l1.17-.13a47.76,47.76,0,0,0-1-4.75.23.23,0,0,0-.45.06Z"/><path class="cls-1" d="M172.12,95.89c.87-1.08,0-2-1.29-1.85-1.62.19-2.23,1.87-2.2,3.31.1,4.42,5.45,1.5,4.55-1.76-.15-.56-1.12-.54-1.1.1,0,1.7.07,3.4.09,5.1a9.49,9.49,0,0,1,0,2.19c-.52.7-2.34,0-3-.1a.63.63,0,1,0-.28,1.23c1.23.38,3.8,1.2,4.44-.47.34-.88,0-2.29,0-3.19-.05-1.57-.11-3.15-.14-4.72l-1.1.1c.17.66-1.16,4-2.3,2.15a4.52,4.52,0,0,1,0-1.72c.55-1.41,1.14-1.59,1.77-.55,0,.23.35.35.5.18Z"/><path class="cls-1" d="M177.47,93.69A2.36,2.36,0,0,0,175,94a1.52,1.52,0,0,0-.19,2,2.22,2.22,0,0,0,.94.72c.52.24,1.3.23,1.73.62a1,1,0,0,1,.22,1.23c-.5.65-1,0-1.45-.35a.56.56,0,0,0-.67.06c-.25.22,0,.45-.1.64-.4.92,1.65,1.24,2.12,1.16a1.89,1.89,0,0,0,1.55-1.74A2.3,2.3,0,0,0,178,96.21a6.36,6.36,0,0,0-1.55-.49,1.58,1.58,0,0,1-.5-.18c-.22-.65-.1-1,.36-1.07a3.65,3.65,0,0,1,1.05-.15.33.33,0,0,0,.1-.63Z"/></svg>