<svg id="Layer_1" data-name="Layer 1" xmlns="http://www.w3.org/2000/svg" xmlns:xlink="http://www.w3.org/1999/xlink" viewBox="0 0 126.16 31.87"><defs><style>.cls-1{fill:none;}.cls-2{fill:#231f20;}.cls-3{clip-path:url(#clip-path);}.cls-4{fill:#fff;}</style><clipPath id="clip-path"><rect class="cls-1" width="126.16" height="31.87"/></clipPath></defs><title>logo</title><polygon class="cls-2" points="1.3 6.25 1.3 1.5 105.34 1.5 105.34 6.25 14.66 6.25 14.66 27.2 9 27.2 9 6.25 1.3 6.25"/><g class="cls-3"><path class="cls-2" d="M24.91,22.74a4.59,4.59,0,0,0,3.31,1.12,4.52,4.52,0,0,0,2.66-.78,3.16,3.16,0,0,0,1.37-1.64h4.5a8.51,8.51,0,0,1-3.31,4.79A9.76,9.76,0,0,1,28,27.67a10.62,10.62,0,0,1-4-.7,8.2,8.2,0,0,1-3-2,9.11,9.11,0,0,1-1.89-3.09,11.43,11.43,0,0,1-.66-4A10.75,10.75,0,0,1,19.22,14a9.24,9.24,0,0,1,1.94-3.12,9.4,9.4,0,0,1,3-2.07A9.68,9.68,0,0,1,28,8.09,8.75,8.75,0,0,1,32.18,9a8.25,8.25,0,0,1,2.9,2.46A10.31,10.31,0,0,1,36.72,15a13.5,13.5,0,0,1,.36,4.14H23.65a5.13,5.13,0,0,0,1.26,3.6M30.69,13a3.62,3.62,0,0,0-2.79-1,4.54,4.54,0,0,0-2,.41,3.84,3.84,0,0,0-1.29,1,3.64,3.64,0,0,0-.69,1.3,5.61,5.61,0,0,0-.23,1.22H32a5.89,5.89,0,0,0-1.27-3"/><path class="cls-2" d="M49.88,11.94a3.59,3.59,0,0,0-2.05.56,4.23,4.23,0,0,0-1.35,1.44,6.06,6.06,0,0,0-.74,1.94A10.15,10.15,0,0,0,45.52,18,9.73,9.73,0,0,0,45.74,20a6.26,6.26,0,0,0,.7,1.89,4,4,0,0,0,1.31,1.39,3.65,3.65,0,0,0,2,.54,3.78,3.78,0,0,0,2.83-1,6.54,6.54,0,0,0,1.24-3.69h4.93c-.34,2.47-1.3,5.29-2.88,6.59a9.31,9.31,0,0,1-6.08,1.94A10.17,10.17,0,0,1,46,27a8.6,8.6,0,0,1-3-2,9.05,9.05,0,0,1-1.91-3,10.52,10.52,0,0,1-.68-3.83,12.45,12.45,0,0,1,.63-4A9.15,9.15,0,0,1,42.89,11a8.67,8.67,0,0,1,3-2.11,10.23,10.23,0,0,1,4-.75,11.59,11.59,0,0,1,3.19.43,8.79,8.79,0,0,1,2.74,1.31,7.16,7.16,0,0,1,1.89,2.23,10.66,10.66,0,0,1,1,3.84h-5a4,4,0,0,0-3.89-4"/><path class="cls-4" d="M73.5,17.88V16.69A5,5,0,0,0,73,14.06c-.07-.11-.28-.44-1.29-.44-1.34,0-1.7.49-1.82.64-.24.32-.64,1.15-.64,3.19v.43H61.15V0h8.11V7.71l.44-.23a8.21,8.21,0,0,1,3.61-.89,10.19,10.19,0,0,1,4,.67,6.61,6.61,0,0,1,2.67,2,7.52,7.52,0,0,1,1.34,3,16.34,16.34,0,0,1,.34,3.47v2.12Z"/><path class="cls-2" d="M67.76,1.5v9.68h.11a5.94,5.94,0,0,1,2.48-2.35,6.64,6.64,0,0,1,3-.74,8.51,8.51,0,0,1,3.36.56,4.91,4.91,0,0,1,2.07,1.54,5.88,5.88,0,0,1,1.06,2.42,14.56,14.56,0,0,1,.31,3.15V27.2H75V16.69a6.55,6.55,0,0,0-.72-3.44,2.8,2.8,0,0,0-2.56-1.13,3.52,3.52,0,0,0-3,1.24,6.87,6.87,0,0,0-.94,4.09V27.2H62.65V1.5Z"/><path class="cls-2" d="M88.86,8.59v2.59H89a5.86,5.86,0,0,1,2.52-2.35,7.21,7.21,0,0,1,3.17-.74A8.56,8.56,0,0,1,98,8.65a5,5,0,0,1,2.07,1.54,6,6,0,0,1,1.06,2.42,15.15,15.15,0,0,1,.31,3.15V27.2H96.34V16.69a6.66,6.66,0,0,0-.71-3.44,2.82,2.82,0,0,0-2.56-1.13,3.56,3.56,0,0,0-3,1.24,7,7,0,0,0-.93,4.09V27.2H84V8.59Z"/><rect class="cls-2" x="105.34" y="1.5" width="19.22" height="4.75"/><rect class="cls-2" x="105.34" y="11.76" width="19.22" height="4.39"/><rect class="cls-2" x="105.34" y="22.45" width="19.22" height="4.75"/></g></svg>